<svg id="Слой_1" data-name="Слой 1" xmlns="http://www.w3.org/2000/svg" viewBox="0 0 98.73 117.58"><defs><style>.cls-1{fill:#4fa7ee;}.cls-2{fill:#fff;}</style></defs><title>1</title><path class="cls-1" d="M55.29,66.53c0-4.32,0-8.64,0-13,0-2.15-.75-3.19-2.8-3.78-1.27-.37-2.58-.62-3.88-.88-5-1-10-2-15-3-5.94-1.24-11.87-2.54-17.8-3.81a4.18,4.18,0,0,0-1.76,0c-2.44.54-4.88,1.08-7.33,1.59Q-.89,45.28-8.46,46.81c-4.47.92-8.94,1.86-13.42,2.76-2.35.47-3.57,1.71-3.55,4.24.06,7.2,0,14.4,0,21.6,0,6.53,0,13.07,0,19.61a36.64,36.64,0,0,0,.33,5.74,41,41,0,0,0,3.79,12.13,35.92,35.92,0,0,0,12.13,14c7.38,4.85,14.91,9.45,22.37,14.16a3.13,3.13,0,0,0,3.46,0c.47-.27.92-.58,1.38-.87,6-3.77,11.93-7.57,18-11.27a41.21,41.21,0,0,0,10.48-8.85,37.79,37.79,0,0,0,7.73-15.52A49.69,49.69,0,0,0,55.3,93.12C55.27,84.26,55.29,75.4,55.29,66.53Z" transform="translate(34.43 -33)"/><path class="cls-2" d="M15,42a4.15,4.15,0,0,1,.79.08c5.93,1.27,11.86,2.57,17.8,3.81,5,1,10,2,15,3,1.3.26,2.61.51,3.88.88,2,.59,2.79,1.63,2.8,3.78,0,4.32,0,8.64,0,13,0,8.87,0,17.73,0,26.59a49.69,49.69,0,0,1-1.07,11.42,37.79,37.79,0,0,1-7.73,15.52A41.21,41.21,0,0,1,36,128.91c-6,3.7-12,7.5-18,11.27-.46.29-.91.6-1.38.87a3.45,3.45,0,0,1-1.77.53,3.17,3.17,0,0,1-1.69-.52c-7.46-4.71-15-9.31-22.37-14.16a35.92,35.92,0,0,1-12.13-14,41,41,0,0,1-3.79-12.13A36.64,36.64,0,0,1-25.39,95c0-6.54,0-13.08,0-19.61,0-7.2,0-14.4,0-21.6,0-2.53,1.2-3.77,3.55-4.24,4.48-.9,9-1.84,13.42-2.76Q-.88,45.27,6.67,43.7c2.45-.51,4.89-1.05,7.33-1.59A4.65,4.65,0,0,1,15,42m0-9a13.7,13.7,0,0,0-2.9.32l-1.54.34c-1.87.41-3.81.84-5.69,1.23Q-.48,36-5.82,37.08l-4.45.92-4,.82c-3.13.65-6.25,1.29-9.38,1.92-6.71,1.34-10.84,6.38-10.79,13.14,0,5.12,0,10.35,0,15.41,0,2,0,4.08,0,6.12V80.8c0,4.67,0,9.5,0,14.27a43.7,43.7,0,0,0,.45,7.17A49.49,49.49,0,0,0-29.28,117a45.07,45.07,0,0,0,15.2,17.41c5.35,3.51,10.82,6.94,16.12,10.24l6.4,4a12.12,12.12,0,0,0,6.48,1.91,12.39,12.39,0,0,0,6.3-1.75c.5-.29.92-.57,1.26-.79l.38-.25,5.3-3.34c4.12-2.6,8.38-5.29,12.57-7.88a49.72,49.72,0,0,0,12.73-10.81A46.77,46.77,0,0,0,63,106.59a56.65,56.65,0,0,0,1.31-13.5c0-6.29,0-12.69,0-18.87V62.82c0-3.09,0-6.18,0-9.27,0-6.19-3.41-10.72-9.32-12.41-1.48-.43-2.9-.71-4.15-1l-.42-.09L44.67,39c-3.05-.61-6.2-1.23-9.28-1.87-3.84-.8-7.76-1.65-11.55-2.47l-6.2-1.33A12.54,12.54,0,0,0,15,33Z" transform="translate(34.43 -33)"/><path class="cls-2" d="M15.42,118.51a26.94,26.94,0,0,1-13-3.34A25.75,25.75,0,0,1-7,106.64a2.88,2.88,0,0,1,0-2.07c.8-2.69,2.9-4.27,5.18-5.55a36.67,36.67,0,0,1,16.93-4.5,32.59,32.59,0,0,1,7.14.77A31.56,31.56,0,0,1,32.7,99c2.09,1.23,4,2.64,5,5a3.13,3.13,0,0,1-.42,3.51,30,30,0,0,1-7.95,7.1,25.86,25.86,0,0,1-9.32,3.4C18.52,118.3,17,118.36,15.42,118.51Z" transform="translate(34.43 -33)"/><path class="cls-2" d="M15.42,87.13a11.41,11.41,0,1,1,11.4-11.36C26.91,81.76,21.61,87.4,15.42,87.13Z" transform="translate(34.43 -33)"/></svg>