<svg id="Слой_1" data-name="Слой 1" xmlns="http://www.w3.org/2000/svg" viewBox="0 0 133.14 122.77"><defs><style>.cls-1{fill:#4fa7ee;}.cls-2{fill:#fff;}</style></defs><title>2</title><path class="cls-1" d="M70.61,83.34c-2.33-4.41-7.14-7.43-13.4-7.53-4.83-.08-9.67-.16-14.49,0-3.49.13-4.3-1-3.33-4.37a69.08,69.08,0,0,0,3-21.16c-.19-6.68-3.06-10-9.76-11s-9,.69-11.1,7.68c-.38,1.26-.55,2.59-.88,3.88-1.05,4.17-1.63,8.55-4.5,12C11.41,68.71,6.61,74.45,1.82,80.19c-1.5,1.8-3,3.9-5.29,4.43-4.71,1.11-5.22,4.36-5.2,8.32.07,12.65,0,25.31,0,38,0,8.12.89,9.34,8.79,11.36,9.83,2.52,19.88,1.2,28.31,1.57.22,0,8.15,0,24,0,1.37,0,5,0,7.55-2.44a9.51,9.51,0,0,0,2-3c1-2.3.75-3.85,1-6,.46-3.94,2-3.54,3-8,1.09-4.64-.4-5,1-9,.82-2.34,1.74-3.34,2-6a27.42,27.42,0,0,0,0-4,15.25,15.25,0,0,1,0-5,13,13,0,0,1,.37-1.26,21.72,21.72,0,0,1,1.16-2.51C72.32,92.79,72.61,87.13,70.61,83.34Z" transform="translate(52.14 -30.09)"/><path class="cls-2" d="M29.64,39.09a21.35,21.35,0,0,1,3,.25c6.7,1,9.57,4.29,9.76,11a69.08,69.08,0,0,1-3,21.16c-.91,3.2-.24,4.38,2.79,4.38h.54c2.2-.09,4.39-.12,6.59-.12,2.63,0,5.27,0,7.9.09,6.26.1,11.07,3.12,13.4,7.53,2,3.79,1.71,9.45-.08,13.27a21.72,21.72,0,0,0-1.16,2.51,13,13,0,0,0-.37,1.26,15.25,15.25,0,0,0,0,5,27.42,27.42,0,0,1,0,4c-.26,2.66-1.18,3.66-2,6-1.4,4,.09,4.36-1,9-1,4.46-2.54,4.06-3,8-.25,2.15,0,3.7-1,6a9.51,9.51,0,0,1-2,3c-2.53,2.43-6.18,2.44-7.55,2.44h-24c-1.19-.06-2.41-.07-3.65-.07-2.9,0-5.95.09-9.08.09A62.27,62.27,0,0,1,.14,142.26c-7.9-2-8.79-3.24-8.79-11.36,0-12.65.05-25.31,0-38,0-4,.49-7.21,5.2-8.32C-1.2,84.09.32,82,1.82,80.19c4.79-5.74,9.59-11.48,14.34-17.26,2.87-3.48,3.45-7.86,4.5-12,.33-1.29.5-2.62.88-3.88,1.76-5.81,3.72-7.93,8.1-7.93m0-9h0c-12.38,0-15.53,10.4-16.71,14.32-.35,1.15-.56,2.23-.74,3.09-.09.45-.17.87-.25,1.19-.2.78-.38,1.57-.56,2.36-.61,2.64-1.14,4.91-2.17,6.16C4.42,63-.41,68.82-5.09,74.42L-5.6,75c-.27.33-.63.77-.91,1.08a14.55,14.55,0,0,0-9.4,7.6A20,20,0,0,0-17.67,93c.05,8.88,0,17.92,0,26.67,0,3.75,0,7.5,0,11.25,0,4.82.26,9.49,3.3,13.44S-6.79,149.77-2.1,151a70.93,70.93,0,0,0,17.82,1.87c1.67,0,3.29,0,4.86,0s2.87,0,4.22,0,2.31,0,3.26.06h24.4c5.74,0,10.37-1.67,13.78-4.95a18.29,18.29,0,0,0,4-5.82,19.57,19.57,0,0,0,1.64-7.5c0-.43,0-.81.08-1.12,0-.07,0-.12,0-.16l.13-.22a21.4,21.4,0,0,0,2.67-6.62,22.88,22.88,0,0,0,.62-7.11c0-.17,0-.4,0-.52a3.92,3.92,0,0,1,.13-.44c.15-.41.32-.8.54-1.28A19.85,19.85,0,0,0,78,110.24a35.07,35.07,0,0,0,0-5.53c0-.44-.07-.85-.11-1.26s-.08-.86-.08-1.07.06-.2.09-.29a7.65,7.65,0,0,1,.35-.74c.16-.31.31-.61.45-.91,2.62-5.56,3.6-14.31-.1-21.31-4-7.57-11.93-12.17-21.22-12.32h-.17c-2.4,0-4.87-.07-7.35-.08A71.83,71.83,0,0,0,51.4,50.05c-.32-11-6.52-18-17.46-19.62a29.78,29.78,0,0,0-4.3-.34Z" transform="translate(52.14 -30.09)"/><path class="cls-1" d="M-19.5,86.4c-6,.08-12,.12-18,0-3.95-.09-5.62,1.76-5.6,5.59,0,7,0,14,0,21h0c0,7.17,0,14.34,0,21.51,0,4.06,2,6,6,6,5.84,0,11.68,0,17.52,0,3.81,0,5.63-2.06,5.64-5.79q0-21.51,0-43C-14,88-15.87,86.35-19.5,86.4Z" transform="translate(52.14 -30.09)"/><path class="cls-2" d="M-37.78,86.38h.26c2.86.06,5.72.08,8.58.08,3.15,0,6.29,0,9.44-.07h.16c3.53,0,5.32,1.68,5.32,5.24q0,21.51,0,43c0,3.73-1.83,5.78-5.64,5.79H-31.39c-1.93,0-3.85,0-5.78,0h-.07c-4,0-5.92-1.93-5.9-6,0-7.17,0-14.34,0-21.51h0c0-7,0-14,0-21,0-3.75,1.57-5.6,5.34-5.6m0-9h0a14.16,14.16,0,0,0-10.39,4c-2.64,2.66-4,6.26-3.95,10.69,0,4.91,0,9.92,0,14.77,0,1.87,0,3.74,0,5.6,0,.2,0,.4,0,.6q0,3.18,0,6.36c0,5,0,10.08,0,15.11,0,5.59,2.21,9,4.08,10.88a14.7,14.7,0,0,0,10.82,4.12h.12c1.91,0,3.82,0,5.73,0h11.77c8.73,0,14.59-6,14.61-14.78,0-15.7,0-29.78,0-43,0-8.51-5.77-14.22-14.32-14.22h-.29c-3.56,0-6.51.07-9.31.07-3,0-5.74,0-8.38-.08Z" transform="translate(52.14 -30.09)"/><path class="cls-1" d="M70.61,83.34c-2.33-4.41-7.14-7.43-13.4-7.53-4.83-.08-9.67-.16-14.49,0-3.49.13-4.3-1-3.33-4.37a69.08,69.08,0,0,0,3-21.16c-.19-6.68-3.06-10-9.76-11s-9,.69-11.1,7.68c-.38,1.26-.55,2.59-.88,3.88-1.05,4.17-1.63,8.55-4.5,12C11.41,68.71,6.61,74.45,1.82,80.19c-1.5,1.8-3,3.9-5.29,4.43-4.71,1.11-5.22,4.36-5.2,8.32.07,12.65,0,25.31,0,38,0,8.12.89,9.34,8.79,11.36,9.83,2.52,19.88,1.2,28.31,1.57.22,0,8.15,0,24,0,1.37,0,5,0,7.55-2.44a9.51,9.51,0,0,0,2-3c1-2.3.75-3.85,1-6,.46-3.94,2-3.54,3-8,1.09-4.64-.4-5,1-9,.82-2.34,1.74-3.34,2-6a27.42,27.42,0,0,0,0-4,15.25,15.25,0,0,1,0-5,13,13,0,0,1,.37-1.26,21.72,21.72,0,0,1,1.16-2.51C72.32,92.79,72.61,87.13,70.61,83.34Z" transform="translate(52.14 -30.09)"/></svg>