<svg id="Слой_1" data-name="Слой 1" xmlns="http://www.w3.org/2000/svg" viewBox="0 0 117.53 119.68"><defs><style>.cls-1{fill:#4fa7ee;}.cls-2{fill:#fff;}</style></defs><title>3</title><path class="cls-1" d="M14.15,41.17c-23.85,0-44.45,16.89-48.7,40.09-1.77,9.64-1.19,18.56,1.7,26.65a49.56,49.56,0,0,0,15.3,21.48A42.85,42.85,0,0,0-6,136.75a56.52,56.52,0,0,0,27.18,3c1-.14,3.21-.5,6.37-.67a56.77,56.77,0,0,1,9.84.2c6.52.76,13.76,2.49,19.46,3.47,2.76.48,4.32-1.47,3.24-4.08-2.1-5.05-4.22-10.09-6.44-15.09a2.42,2.42,0,0,1,.35-2.8c8.88-12.15,12.07-25.74,8.62-40.32-4.71-19.94-17.38-32.63-37.24-38A47.63,47.63,0,0,0,14.15,41.17Z" transform="translate(44.55 -32.17)"/><path class="cls-2" d="M14.15,41.17A47.63,47.63,0,0,1,25.4,42.52c19.86,5.33,32.53,18,37.24,38,3.45,14.58.26,28.17-8.62,40.32a2.42,2.42,0,0,0-.35,2.8c2.22,5,4.34,10,6.44,15.09,1,2.34-.19,4.15-2.44,4.15a4.56,4.56,0,0,1-.8-.07c-5.7-1-12.94-2.71-19.46-3.47a50.13,50.13,0,0,0-5.85-.32c-1.72,0-3.13.07-4,.12-3.16.17-5.4.53-6.37.67a53.16,53.16,0,0,1-7.39.52A56,56,0,0,1-6,136.75a42.85,42.85,0,0,1-11.57-7.36,49.56,49.56,0,0,1-15.3-21.48c-2.89-8.09-3.47-17-1.7-26.65,4.25-23.2,24.85-40,48.7-40.09m0-9h0c-28.3.06-52.5,20-57.53,47.46-2.05,11.18-1.35,21.71,2.07,31.31a58.36,58.36,0,0,0,18,25.34,52.06,52.06,0,0,0,13.87,8.77,64.35,64.35,0,0,0,23.28,4.24,62,62,0,0,0,8.66-.61l.34-.05c1-.14,2.81-.41,5.26-.54.68,0,1.95-.11,3.49-.11a40,40,0,0,1,4.8.26c3.91.46,8.22,1.31,12.39,2.14,2.32.47,4.5.9,6.58,1.26a13.29,13.29,0,0,0,2.34.2,11.76,11.76,0,0,0,9.86-5.11,12.05,12.05,0,0,0,.89-11.49c-1.51-3.64-3.25-7.8-5.1-12.06,9-13.75,11.77-29.15,8.08-44.77C66,55.46,50.87,40,27.73,33.83a56.28,56.28,0,0,0-13.35-1.66Z" transform="translate(44.55 -32.17)"/><path class="cls-2" d="M27.09,64.38A20.49,20.49,0,0,0,14.91,61C6.72,61.23.17,64.4-4.2,71.6c-1.16,1.91-.78,3,1.1,4,1.66.85,3.27,1.79,4.85,2.78s3,1,4.14-.92c2.29-3.8,5.77-5.31,10.18-5,5.4.42,7.89,4.55,5.6,9.44-1.38,2.95-3.68,5.12-6.12,7.17A19.92,19.92,0,0,0,10,95.62c-2.47,5.2-2.53,6.73,3.57,6.25.19,0,.38,0,.56,0,4.69,0,4.67,0,7.19-3.81a20.48,20.48,0,0,1,2.32-2.78c2.07-2.15,4.31-4.14,6.27-6.37C36.84,81,35.57,70,27.09,64.38Z" transform="translate(44.55 -32.17)"/><path class="cls-2" d="M14,108.59a7.05,7.05,0,0,0-7,7.37,7.17,7.17,0,0,0,14.34-.25A7.05,7.05,0,0,0,14,108.59Z" transform="translate(44.55 -32.17)"/></svg>