<svg id="Слой_1" data-name="Слой 1" xmlns="http://www.w3.org/2000/svg" viewBox="0 0 84.12 138"><defs><style>.cls-1{fill:#4fa7ee;}.cls-2{fill:#fff;}</style></defs><title>4</title><path class="cls-1" d="M41.34,95.23S38.24,92.42,31,88.64l-.27-.14c-4.12-2.12-7.18-3.58-9.62-4.74V60.92a15.57,15.57,0,0,1,5.31,3.24c.3.29.59.59.87.88,5.35,5.32,5.32,5.35,11.78,1.54C40.34,65.81,41.63,65,43,64.3a7.29,7.29,0,0,0,1.21-.82c1.65-1.37,1.78-3,.33-5.39-.71-1.15-1.3-2-1.45-2.19a37.42,37.42,0,0,0-22-12.22V35a3,3,0,0,0-3-3H14.81a3,3,0,0,0-3,3v8.6c-6.25,1-17.8,4.16-23.4,15.1-.39.76-6,12.21-1,22.4,3.2,6.41,9.58,10.19,15.73,13.85,2.91,1.73,6.13,3.23,6.31,3.32.8.37,1.58.71,2.33,1v23.92a15.09,15.09,0,0,1-4.91-1.73c-5.59-3.21-7.74-6.88-7.74-6.88-.73-1.25-1.23-2.53-2.58-3s-2.92.18-5.91,1.54a42.84,42.84,0,0,0-3.82,2.1c-3,1.68-4.09,2.48-4.47,3.85a5.55,5.55,0,0,0,.9,4.23A35.17,35.17,0,0,0-6.26,134.52a40.24,40.24,0,0,0,18.1,5.78V149a3,3,0,0,0,3,3h3.28a3,3,0,0,0,3-3v-8.92a31.85,31.85,0,0,0,8-2.15c2.67-1.12,14.75-6.52,18.3-19.08a24.13,24.13,0,0,0,.14-13.38A22.37,22.37,0,0,0,41.34,95.23ZM9.41,77.89c-2.58-2-5.52-4.34-5.68-7.9-.19-4.16,3-6.89,3.63-7.45a10.34,10.34,0,0,1,4.48-2.24v19A17.82,17.82,0,0,1,9.41,77.89ZM26.78,119a14.35,14.35,0,0,1-5.72,3.5V102.32l.06,0a17.56,17.56,0,0,1,2.09.85l0,0a15.62,15.62,0,0,1,2.39,1.44,6,6,0,0,1,.65.46,9.43,9.43,0,0,1,3.63,7C30,115.67,27.6,118.14,26.78,119Z" transform="translate(26.74 -23)"/><path class="cls-2" d="M18.09,32a3,3,0,0,1,3,3v8.71A37.42,37.42,0,0,1,43,55.9c.15.17.74,1,1.45,2.19,1.45,2.35,1.32,4-.33,5.39A7.29,7.29,0,0,1,43,64.3c-1.32.74-2.61,1.51-3.93,2.28-3,1.74-4.55,2.68-5.92,2.68-1.63,0-3-1.33-5.86-4.22-.28-.29-.57-.59-.87-.88a15.57,15.57,0,0,0-5.31-3.24V83.76c2.44,1.16,5.5,2.62,9.62,4.74l.27.14c7.29,3.78,10.39,6.59,10.39,6.59A22.37,22.37,0,0,1,47.5,105.5a24.13,24.13,0,0,1-.14,13.38c-3.55,12.56-15.63,18-18.3,19.08a31.85,31.85,0,0,1-8,2.15V149a3,3,0,0,1-3,3H14.81a3,3,0,0,1-3-3V140.3a40.24,40.24,0,0,1-18.1-5.78,35.17,35.17,0,0,1-10.43-11.23,5.55,5.55,0,0,1-.9-4.23c.38-1.37,1.45-2.17,4.47-3.85a42.84,42.84,0,0,1,3.82-2.1c2.32-1,3.74-1.71,4.93-1.71a3,3,0,0,1,1,.17c1.35.48,1.85,1.76,2.58,3,0,0,2.15,3.67,7.74,6.88a15.09,15.09,0,0,0,4.91,1.73V99.27c-.75-.32-1.53-.66-2.33-1-.18-.09-3.4-1.59-6.31-3.32-6.15-3.66-12.53-7.44-15.73-13.85-5.08-10.19.58-21.64,1-22.4C-6,47.73,5.59,44.52,11.84,43.57V35a3,3,0,0,1,3-3h3.28M11.84,79.31v-19a10.34,10.34,0,0,0-4.48,2.24c-.65.56-3.82,3.29-3.63,7.45.16,3.56,3.1,5.85,5.68,7.9a17.82,17.82,0,0,0,2.43,1.42m9.22,43.18a14.35,14.35,0,0,0,5.72-3.5c.82-.85,3.21-3.32,3.14-6.86a9.43,9.43,0,0,0-3.63-7,6,6,0,0,0-.65-.46,15.62,15.62,0,0,0-2.39-1.44l0,0a17.56,17.56,0,0,0-2.09-.85l-.06,0v20.17M18.09,23H14.81a12,12,0,0,0-12,12v1.48C-4.9,38.9-14.15,44-19.57,54.56c-.84,1.65-8,16.46-1,30.53,4.37,8.77,12.24,13.44,19.17,17.56l.4.23a11.92,11.92,0,0,0-3.36-.48c-3.13,0-5.66,1.15-8.58,2.49l-.09,0A38.53,38.53,0,0,0-16.9,107l-.6.36c-3.09,1.72-7.32,4.08-8.77,9.3-1,3.55-.4,7.3,1.77,11.1a43.9,43.9,0,0,0,13.43,14.38,48.43,48.43,0,0,0,13.91,5.81V149a12,12,0,0,0,12,12h3.28a12,12,0,0,0,12-12v-1.84c.83-.28,1.65-.59,2.45-.92,5.61-2.34,19.13-9.43,23.51-24.94A32.91,32.91,0,0,0,56.15,103,31,31,0,0,0,47.4,88.57c-.71-.63-4.43-3.84-12.31-7.92l-.18-.09-.1-.06c-1.76-.9-3.35-1.7-4.75-2.39v-.23a12.1,12.1,0,0,0,3,.38c3.84,0,6.77-1.74,10.49-3.93l.94-.55c1-.57,1.88-1.1,2.79-1.61l.06,0A16.82,16.82,0,0,0,50,70.37c3.87-3.25,6.76-9.64,2.19-17A23.1,23.1,0,0,0,49.84,50,45.72,45.72,0,0,0,30.06,36.74V35a12,12,0,0,0-12-12Z" transform="translate(26.74 -23)"/></svg>