<svg id="Слой_1" data-name="Слой 1" xmlns="http://www.w3.org/2000/svg" viewBox="0 0 146.8 140.42"><defs><style>.cls-1{fill:#4fa7ee;}.cls-2{fill:#fff;}</style></defs><title>gear</title><path class="cls-1" d="M60,104.94c-2.13,0-4.26,0-6.39,0-2.92,0-4.11-.89-4.83-3.59-1-3.86-2.06-7.72-3-11.61a2.6,2.6,0,0,0-1.94-2.11c-1.8-.62-3.58-1.32-5.3-2.11a2.66,2.66,0,0,0-2.76.15C33,87.35,30.07,89,27.2,90.58s-4.14,1.45-6.42-.69q-4.62-4.35-9.19-8.74c-2.17-2.09-2.31-3.36-.7-5.94,1.74-2.78,3.49-5.57,5.26-8.33a2.06,2.06,0,0,0,.22-2.26c-.9-1.83-1.71-3.71-2.46-5.6a2.4,2.4,0,0,0-2-1.56c-4-.88-8-1.84-12-2.78-3.27-.77-4.12-1.78-4.12-4.93q0-6,0-12c0-3.26.86-4.24,4.26-5,3.86-.9,7.7-1.89,11.59-2.69a2.87,2.87,0,0,0,2.45-2.15,22.29,22.29,0,0,1,1.52-3.56,2.69,2.69,0,0,0-.14-3.17c-2-3-3.89-6.12-5.8-9.2C8,9.24,8.12,8,10.51,5.74q4.37-4.17,8.75-8.31C21.76-4.93,23-5.09,26-3.39s6.24,3.5,9.32,5.31a2.76,2.76,0,0,0,2.94.18A53.73,53.73,0,0,1,43.93-.19a2.5,2.5,0,0,0,1.83-2c.9-3.82,1.93-7.61,2.92-11.41.79-3.06,1.88-3.89,5.2-3.9q6.51,0,13,0c2.79,0,4,.89,4.7,3.47,1,3.92,2.09,7.85,3,11.8a2.48,2.48,0,0,0,1.8,2c1.86.65,3.7,1.38,5.5,2.18a2.31,2.31,0,0,0,2.37-.17c3-1.71,6-3.39,9-5.09,3.17-1.8,4.37-1.68,6.92.73q4.45,4.22,8.89,8.45c2.27,2.17,2.41,3.42.74,6.1-1.78,2.84-3.55,5.69-5.38,8.5a2.42,2.42,0,0,0-.21,2.8A33.86,33.86,0,0,1,106.27,28a2.93,2.93,0,0,0,2.48,2.12c3.88.81,7.72,1.78,11.58,2.69,3.43.81,4.24,1.76,4.25,5,0,4,0,8,0,11.95,0,3.14-.88,4.16-4.14,4.92-3.93.92-7.85,1.89-11.79,2.74a2.65,2.65,0,0,0-2.27,1.81,40.08,40.08,0,0,1-2.13,4.85,2.33,2.33,0,0,0,.22,2.62c1.83,2.81,3.6,5.66,5.37,8.51,1.64,2.63,1.46,3.9-.83,6.09q-4.42,4.23-8.89,8.45c-2.46,2.33-3.73,2.45-6.76.73-2.81-1.59-5.64-3.14-8.4-4.79a3,3,0,0,0-3.15-.19c-1.78.83-3.63,1.53-5.48,2.2a2.32,2.32,0,0,0-1.69,1.85c-.92,3.81-2,7.6-2.93,11.4-.82,3.21-1.85,4-5.34,4ZM86.6,43.84c0-13.86-11.74-25.11-26.36-25.21C45.78,18.53,33.73,30,33.77,43.73S45.62,68.8,60.24,68.84C74.63,68.87,86.57,57.54,86.6,43.84Z" transform="translate(13.21 26.48)"/><path class="cls-2" d="M60.87-17.48l6,0c2.79,0,4,.89,4.7,3.47,1,3.92,2.09,7.85,3,11.8a2.48,2.48,0,0,0,1.8,2c1.86.65,3.7,1.38,5.5,2.18a2.46,2.46,0,0,0,1,.25,2.6,2.6,0,0,0,1.34-.42c3-1.71,6-3.39,9-5.09a7.25,7.25,0,0,1,3.38-1.23c1.14,0,2.13.63,3.54,2q4.45,4.22,8.89,8.45c2.27,2.17,2.41,3.42.74,6.1-1.78,2.84-3.55,5.69-5.38,8.5a2.42,2.42,0,0,0-.21,2.8A33.86,33.86,0,0,1,106.27,28a2.93,2.93,0,0,0,2.48,2.12c3.88.81,7.72,1.78,11.58,2.69,3.43.81,4.24,1.76,4.25,5,0,4,0,8,0,11.95,0,3.14-.88,4.16-4.14,4.92-3.93.92-7.85,1.89-11.79,2.74a2.65,2.65,0,0,0-2.27,1.81,40.08,40.08,0,0,1-2.13,4.85,2.33,2.33,0,0,0,.22,2.62c1.83,2.81,3.6,5.66,5.37,8.51,1.64,2.63,1.46,3.9-.83,6.09q-4.42,4.23-8.89,8.45c-1.36,1.29-2.36,1.9-3.49,1.9a6.94,6.94,0,0,1-3.27-1.17c-2.81-1.59-5.64-3.14-8.4-4.79a3.34,3.34,0,0,0-1.72-.55,3.39,3.39,0,0,0-1.43.36c-1.78.83-3.63,1.53-5.48,2.2a2.32,2.32,0,0,0-1.69,1.85c-.92,3.81-2,7.6-2.93,11.4-.82,3.21-1.85,4-5.34,4H53.58c-2.92,0-4.11-.89-4.83-3.59-1-3.86-2.06-7.72-3-11.61a2.6,2.6,0,0,0-1.94-2.11c-1.8-.62-3.58-1.32-5.3-2.11a3,3,0,0,0-1.27-.31,2.87,2.87,0,0,0-1.49.46C33,87.35,30.07,89,27.2,90.58a6.58,6.58,0,0,1-3.09,1.07c-1.09,0-2.07-.57-3.33-1.76q-4.62-4.35-9.19-8.74c-2.17-2.09-2.31-3.36-.7-5.94,1.74-2.78,3.49-5.57,5.26-8.33a2.06,2.06,0,0,0,.22-2.26c-.9-1.83-1.71-3.71-2.46-5.6a2.4,2.4,0,0,0-2-1.56c-4-.88-8-1.84-12-2.78-3.27-.77-4.12-1.78-4.12-4.93q0-6,0-12c0-3.26.86-4.24,4.26-5,3.86-.9,7.7-1.89,11.59-2.69a2.87,2.87,0,0,0,2.45-2.15,22.29,22.29,0,0,1,1.52-3.56,2.69,2.69,0,0,0-.14-3.17c-2-3-3.89-6.12-5.8-9.2C8,9.24,8.12,8,10.51,5.74q4.37-4.17,8.75-8.31c1.4-1.32,2.41-1.95,3.56-1.95A6.68,6.68,0,0,1,26-3.39c3.12,1.76,6.24,3.5,9.32,5.31a3.06,3.06,0,0,0,1.61.52,3.12,3.12,0,0,0,1.33-.34A53.73,53.73,0,0,1,43.93-.19a2.5,2.5,0,0,0,1.83-2c.9-3.82,1.93-7.61,2.92-11.41.79-3.06,1.88-3.89,5.2-3.9h7M60.3,68.84c14.36,0,26.27-11.32,26.3-25,0-13.86-11.74-25.11-26.36-25.21h-.18c-14.38,0-26.33,11.38-26.29,25.1,0,13.87,11.85,25.07,26.47,25.11h.06m.57-95.32h-7c-7.41,0-12.08,3.6-13.91,10.65l-.82,3.16q-.68,2.54-1.34,5.15l-.48.19c-1.77-1-3.54-2-5.26-3l-1.63-.92a15.33,15.33,0,0,0-7.61-2.29c-4.49,0-7.57,2.35-9.74,4.41C9.52-5.75,6.81-3.18,4.29-.76-1.17,4.47-1.93,10.35,2,16.74L3.1,18.5c.76,1.23,1.53,2.48,2.32,3.73l-3.77.9C.44,23.42-.77,23.72-2,24c-7.43,1.73-11.2,6.37-11.22,13.78q0,6,0,12c0,7.35,3.74,11.94,11.06,13.67l2.74.65,5.79,1.35-3.14,5C-.62,76.65.1,82.6,5.35,87.64c2.83,2.72,5.86,5.6,9.26,8.8a13.65,13.65,0,0,0,9.5,4.21,15.08,15.08,0,0,0,7.52-2.24l1.85-1L37.73,95l.06,0c.73,2.9,1.49,5.78,2.24,8.58l0,.11c1.75,6.57,6.53,10.21,13.45,10.27H66.39c7.59,0,12.18-3.53,14-10.74.3-1.17.6-2.33.91-3.5.4-1.55.82-3.13,1.22-4.73l.26-.1L86.51,97l2.41,1.35a15.52,15.52,0,0,0,7.71,2.34c5.06,0,8.41-3.16,9.67-4.36,2.61-2.46,5.37-5.08,8.93-8.49,5.35-5.11,6.13-11.11,2.25-17.34l-.48-.78c-.88-1.41-1.78-2.86-2.69-4.3l4.78-1.13,3.4-.81c7.34-1.71,11.07-6.31,11.09-13.66q0-6,0-12c0-7.5-3.67-12-11.18-13.78l-3.05-.73c-1.71-.41-3.46-.83-5.23-1.23l2.47-3.94.84-1.34c3.92-6.27,3.18-12.27-2.15-17.37q-4.45-4.26-8.92-8.48c-1.4-1.33-4.68-4.43-9.73-4.43A15.62,15.62,0,0,0,88.8-11.1c-1.07.61-2.14,1.22-3.22,1.82l-3,1.71c-.76-3-1.54-6-2.29-8.75-1.74-6.51-6.48-10.11-13.35-10.14l-6.06,0ZM60.3,59.84h0c-9.6,0-17.45-7.26-17.48-16.14a15.31,15.31,0,0,1,4.64-10.85,18,18,0,0,1,12.65-5.22h.12C69.8,27.7,77.61,35,77.6,43.83c0,8.68-7.94,16-17.3,16Z" transform="translate(13.21 26.48)"/></svg>