<svg id="Слой_1" data-name="Слой 1" xmlns="http://www.w3.org/2000/svg" viewBox="0 0 206.92 124.91"><defs><style>.cls-1{fill:#4fa7ee;}.cls-2{fill:#fff;}</style></defs><title>moto</title><path class="cls-1" d="M206.72,39.4c-4.8,0-9.6-.1-14.39.05a3.72,3.72,0,0,1-4-2.52c-4.89-10.48-10-20.86-14.9-31.34A14.22,14.22,0,0,0,168.91.15c-7.81-5.92-15.53-12-23.35-17.87-1.64-1.24-2.56-2.52-2.32-4.65a36.27,36.27,0,0,0,0-5c0-1.35.42-1.86,1.85-1.63,11.83,1.9,23.66,3.71,35.47,5.65a10,10,0,0,1,3.63,1.69C190.85-17.32,197.48-13,204-8.49a4.14,4.14,0,0,0,4.81.35c6.72-3.32,13.52-6.5,20.34-9.62,1.66-.76,2.28-1.29,1-3.06-2.54-3.56-4.76-7.35-7.3-10.91a7.45,7.45,0,0,0-3.33-2.5c-5.39-1.94-10.84-3.7-16.3-5.45-1.59-.51-1.8-.9-.48-2.17a7.84,7.84,0,0,1,6.11-2.36c6.25.19,12.51.14,18.77,0a4,4,0,0,1,4,2.24c3.28,5.32,6.78,10.51,10,15.85,1.05,1.71,2,1.91,3.73,1,3-1.51,6.09-2.74,9.08-4.2,1.72-.83,2.23-.3,2.21,1.44-.05,3.65-.06,7.3,0,11a2.59,2.59,0,0,1-1.64,2.7,7.27,7.27,0,0,0-1.07.65c-3.29,2.31-3.17,1.51-1,4.87,1.78,2.82,3.75,5.53,5.34,8.45,1.08,2,2.31,2.15,4.3,1.66,12.06-3,22.42.33,30.49,9.54,7.89,9,10,19.6,5.89,31s-12.26,18.19-24.16,20.2a30.54,30.54,0,0,1-31.14-14.07,31.21,31.21,0,0,1,1.1-34.76,19.17,19.17,0,0,1,2-2.42c2.4-2.44,2.5-1.75.55-4.81-1.62-2.55-3.31-5-4.92-7.61-.66-1-1.22-1.27-2.12-.25-2.32,2.68-4.76,5.26-7,8a8.43,8.43,0,0,0-1.33,3.11c-2.49,9-5,18.08-7.34,27.16-.55,2.15-1.39,3.06-3.76,3C216.11,39.26,211.41,39.4,206.72,39.4Zm63,9.63a17.77,17.77,0,0,0,17.55-17.26A17.67,17.67,0,0,0,270.62,14a11.79,11.79,0,0,0-2.4.35A11.09,11.09,0,0,0,269,16.6c2,3.18,4,6.35,6.11,9.45.93,1.37.72,2.14-.66,3-2.41,1.45-4.79,3-7.06,4.63-1.4,1-2.09.63-2.9-.69-2.07-3.37-4.24-6.69-6.4-10-1.74-2.68-1.89-2.66-3.49.22C248.32,34.52,256.75,48.92,269.76,49Z" transform="translate(-103.06 53.21)"/><path class="cls-2" d="M208.53-44.21h.34c3,.09,5.92.12,8.88.12,3.3,0,6.59,0,9.89-.1h.14a4,4,0,0,1,3.83,2.24c3.28,5.32,6.78,10.51,10,15.85.65,1.06,1.27,1.54,2.06,1.54a3.79,3.79,0,0,0,1.67-.5c3-1.51,6.09-2.74,9.08-4.2a3.1,3.1,0,0,1,1.27-.38c.71,0,.95.62.94,1.82-.05,3.65-.06,7.3,0,11a2.59,2.59,0,0,1-1.64,2.7,7.27,7.27,0,0,0-1.07.65c-3.29,2.31-3.17,1.51-1,4.87,1.78,2.82,3.75,5.53,5.34,8.45A2.93,2.93,0,0,0,261,1.69a7,7,0,0,0,1.59-.23A34.64,34.64,0,0,1,270.89.4c8.55,0,16,3.59,22.17,10.6,7.89,9,10,19.6,5.89,31s-12.26,18.19-24.16,20.2a31.13,31.13,0,0,1-5.15.43,30.49,30.49,0,0,1-26-14.5,31.21,31.21,0,0,1,1.1-34.76,19.17,19.17,0,0,1,2-2.42c2.4-2.44,2.5-1.75.55-4.81-1.62-2.55-3.31-5-4.92-7.61-.37-.58-.71-.91-1.09-.91s-.63.21-1,.66c-2.32,2.68-4.76,5.26-7,8a8.43,8.43,0,0,0-1.33,3.11c-2.49,9-5,18.08-7.34,27.16-.52,2-1.31,3-3.41,3h-.35c-2-.09-3.89-.12-5.84-.12-2.75,0-5.49,0-8.24,0h0l-8.31,0c-2,0-4.06,0-6.08.08h-.26a3.66,3.66,0,0,1-3.78-2.52c-4.89-10.48-10-20.86-14.9-31.34A14.22,14.22,0,0,0,168.91.15c-7.81-5.92-15.53-12-23.35-17.87-1.64-1.24-2.56-2.52-2.32-4.65a36.27,36.27,0,0,0,0-5c0-1.14.29-1.68,1.26-1.68a4.4,4.4,0,0,1,.59.05c11.83,1.9,23.66,3.71,35.47,5.65a10,10,0,0,1,3.63,1.69C190.85-17.32,197.48-13,204-8.49a4.52,4.52,0,0,0,2.59,1,5.07,5.07,0,0,0,2.22-.61c6.72-3.32,13.52-6.5,20.34-9.62,1.66-.76,2.28-1.29,1-3.06-2.54-3.56-4.76-7.35-7.3-10.91a7.45,7.45,0,0,0-3.33-2.5c-5.39-1.94-10.84-3.7-16.3-5.45-1.59-.51-1.8-.9-.48-2.17a7.79,7.79,0,0,1,5.77-2.36m57.53,78.45c-.59,0-1-.46-1.54-1.27-2.07-3.37-4.24-6.69-6.4-10-.85-1.31-1.32-2-1.77-2s-.9.72-1.72,2.19c-6.31,11.34,2.12,25.74,15.13,25.85h.14a17.77,17.77,0,0,0,17.41-17.26A17.67,17.67,0,0,0,270.62,14h-.15a14.82,14.82,0,0,0-2.25.36A11.09,11.09,0,0,0,269,16.6c2,3.18,4,6.35,6.11,9.45.93,1.37.72,2.14-.66,3-2.41,1.45-4.79,3-7.06,4.63a2.46,2.46,0,0,1-1.36.58M208.53-53.21a16.84,16.84,0,0,0-12,4.87c-3.84,3.67-4,7.39-3.39,9.86s2.3,5.74,7.35,7.37,10.27,3.3,15.43,5.14c.76,1.08,1.5,2.2,2.26,3.37-4,1.87-7.67,3.61-11.12,5.3-6.1-4.16-12.34-8.24-17.91-11.89a18.21,18.21,0,0,0-7.1-3c-7.18-1.18-14.47-2.33-21.52-3.44q-7-1.09-14-2.21a12.91,12.91,0,0,0-2-.17,10.18,10.18,0,0,0-7.36,3,10.47,10.47,0,0,0-2.89,7.88c0,.32,0,.64,0,1a25.75,25.75,0,0,1,0,2.81c-.4,3.54.29,8.65,5.84,12.83,4.21,3.18,8.48,6.47,12.61,9.65,3.5,2.7,7.12,5.48,10.71,8.21a5.28,5.28,0,0,1,1.78,2.09c2.39,5.11,4.86,10.25,7.25,15.23,2.53,5.28,5.14,10.73,7.65,16.1a12.63,12.63,0,0,0,11.93,7.71h.53c1.69-.06,3.54-.08,5.81-.08l4.1,0h4.21l4.2,0c1.35,0,2.69,0,4,0,2.13,0,3.86,0,5.43.11h.76a11.92,11.92,0,0,0,10.43-5.58,41,41,0,0,0,4.4,9.9A39.55,39.55,0,0,0,276.28,71c15.15-2.55,25.92-11.55,31.14-26,5.16-14.29,2.46-28.47-7.59-39.94C292-3.87,282-8.6,270.89-8.6a42,42,0,0,0-6.81.57l-.88-1.36A11.79,11.79,0,0,0,265.69-17c-.08-3.78-.05-7.51,0-10.67a10.81,10.81,0,0,0-3-8,9.71,9.71,0,0,0-7-2.88,11.77,11.77,0,0,0-5.21,1.29c-1.21.59-2.49,1.16-3.84,1.76l-.28.12c-.79-1.24-1.59-2.48-2.37-3.69-1.58-2.47-3.22-5-4.76-7.51a13,13,0,0,0-11.5-6.52h-.31c-3.74.07-6.83.1-9.72.1-3.1,0-5.92,0-8.62-.11Z" transform="translate(-103.06 53.21)"/><path class="cls-1" d="M174,31.52A31,31,0,1,1,143.1.31,31,31,0,0,1,174,31.52ZM143.18,14a17.7,17.7,0,0,0-17.53,17.58,17.44,17.44,0,1,0,34.88-.13A17.71,17.71,0,0,0,143.18,14Z" transform="translate(-103.06 53.21)"/><path class="cls-2" d="M143.09.31h0A31,31,0,0,1,174,31.52a31,31,0,0,1-30.91,31.17h0a31.19,31.19,0,0,1,0-62.38m0,48.72a17.81,17.81,0,0,0,17.41-17.6A17.71,17.71,0,0,0,143.18,14h-.12a17.71,17.71,0,0,0-17.41,17.58A17.75,17.75,0,0,0,143,49h.13m0-57.72h0A39.69,39.69,0,0,0,114.82,3.15,39.9,39.9,0,1,0,171.25,3a39.54,39.54,0,0,0-28.14-11.7Zm0,48.72h-.06a8.76,8.76,0,0,1-8.41-8.51,8.57,8.57,0,0,1,2.55-6A8.28,8.28,0,0,1,143.06,23h.05a8.69,8.69,0,0,1,8.42,8.53A8.83,8.83,0,0,1,143.12,40Z" transform="translate(-103.06 53.21)"/><circle class="cls-2" cx="39.44" cy="84.71" r="10.5"/></svg>