<svg id="Слой_1" data-name="Слой 1" xmlns="http://www.w3.org/2000/svg" viewBox="0 0 108.51 163.37"><defs><style>.cls-1{fill:#4fa7ee;}.cls-2{fill:#fff;}</style></defs><title>power</title><path class="cls-1" d="M44.59,44.81c-4.08,0-8.16,0-12.23,0-2.93,0-5.43-1-6.83-3.79s-.7-5.34,1-7.73Q51-.11,75.41-33.46c2.57-3.49,5.06-4.25,8.33-2.93s4.84,4.22,4.18,8.24q-3.3,20.2-6.79,40.39c-.92,5.36-1,5.35,4.48,5.35,7.2,0,14.39,0,21.58,0s10.25,5.45,6.45,11.44Q89.7,66.85,65.56,104.53C63.34,108,60.37,109.06,57,108c-3.09-1-4.64-3.5-4.14-7.82C54,89.55,55.49,79,56.86,68.41c.91-7,1.75-14,2.8-21,.35-2.28-.53-2.66-2.48-2.62C53,44.88,48.78,44.81,44.59,44.81Z" transform="translate(-15.78 46)"/><path class="cls-2" d="M81-37a7.45,7.45,0,0,1,2.78.61c3.23,1.29,4.84,4.22,4.18,8.24q-3.3,20.2-6.79,40.39c-.92,5.36-1,5.35,4.48,5.35h.59l12.78,0q4.11,0,8.21,0c7.1,0,10.25,5.45,6.45,11.44Q89.7,66.85,65.56,104.53c-1.66,2.59-3.74,3.84-6.11,3.84A8.09,8.09,0,0,1,57,108c-3.09-1-4.64-3.5-4.14-7.82C54,89.55,55.49,79,56.86,68.41c.91-7,1.75-14,2.8-21,.33-2.17-.45-2.62-2.21-2.62h-.27c-1.74,0-3.49,0-5.23,0l-7.36,0H37.35c-1.67,0-3.33,0-5,0-2.93,0-5.43-1-6.83-3.79s-.7-5.34,1-7.73Q51-.11,75.41-33.46C77.2-35.9,79-37,81-37m0-9c-5,0-9.29,2.43-12.8,7.21C56-22.24,43.71-5.41,31.8,10.87L19.31,28C13.94,35.29,15.86,41.81,17.49,45s5.69,8.65,14.77,8.75c1.69,0,3.39,0,5.09,0H49.67C49.3,56.58,49,59.31,48.61,62c-.22,1.75-.44,3.5-.67,5.25q-.55,4.26-1.12,8.51c-1,7.63-2,15.53-3,23.34-1.16,10,4.56,15.54,10.29,17.41a17.22,17.22,0,0,0,5.29.86c5.53,0,10.4-2.84,13.69-8,15.77-24.68,32.08-50.2,48.1-75.52,3.58-5.65,4-11.85,1.21-17S114,8.65,107.26,8.6L99,8.57H90.89C93-3.93,95-15.52,96.8-26.7c1.32-8.06-2.48-15.14-9.7-18A16.33,16.33,0,0,0,81-46Z" transform="translate(-15.78 46)"/></svg>