<svg id="Слой_1" data-name="Слой 1" xmlns="http://www.w3.org/2000/svg" viewBox="0 0 139.77 151.36"><defs><style>.cls-1{fill:#4fa7ee;}.cls-2{fill:#fff;}</style></defs><title>weight</title><path class="cls-1" d="M131,93.08Q129,82.39,127.11,71.66q-4.92-27.58-9.84-55.19c-.82-4.59-3.18-6.45-7.94-6.47H87.43C98.78-3.55,94-18.16,86-25.14a23.92,23.92,0,0,0-31.25,0C46.36-18,42-3,53.27,10H31.8c-5.59,0-7.64,1.81-8.6,7.28q-3.79,21.66-7.69,43.29c-2,11-4,21.93-5.88,32.9-1,5.72,1.74,8.92,7.51,8.92H123.46a10.32,10.32,0,0,0,3.24-.38C130.48,100.71,131.81,97.81,131,93.08ZM70.29-17.69A10.78,10.78,0,0,1,80.87-7,10.44,10.44,0,0,1,70.34,3.48,10.43,10.43,0,0,1,59.77-7.13,10.76,10.76,0,0,1,70.29-17.69Z" transform="translate(-0.42 39.97)"/><path class="cls-2" d="M70.32-31A23.85,23.85,0,0,1,86-25.14C94-18.16,98.78-3.55,87.43,10h21.9c4.76,0,7.12,1.88,7.94,6.47q5,27.59,9.84,55.19Q129,82.39,131,93.08c.86,4.73-.47,7.63-4.25,8.92a10.32,10.32,0,0,1-3.24.38H17.14c-5.77,0-8.51-3.2-7.51-8.92,1.92-11,3.92-21.93,5.88-32.9q3.85-21.63,7.69-43.29c1-5.47,3-7.28,8.6-7.28H53.27C42-3,46.36-18,54.71-25.18A23.89,23.89,0,0,1,70.32-31m0,34.45h0A10.44,10.44,0,0,0,80.87-7,10.78,10.78,0,0,0,70.33-17.69h0A10.76,10.76,0,0,0,59.77-7.13,10.43,10.43,0,0,0,70.31,3.48m0-43.45v0a33,33,0,0,0-21.48,8A33.09,33.09,0,0,0,37.58-9.46,32.18,32.18,0,0,0,38.49,1h-6.7C21.93,1,16.05,6,14.34,15.73c-2.05,11.67-4.17,23.53-6.22,35L6.65,59q-1,5.77-2.08,11.55C3.31,77.54,2,84.78.76,91.92c-1.21,6.94,1.06,11.4,3.18,13.93s6.14,5.54,13.2,5.54H123.46a18.75,18.75,0,0,0,6.13-.86c8.06-2.74,11.88-9.86,10.22-19q-1.94-10.7-3.84-21.4-1.62-9.06-3.23-18.14c-2.16-12.15-4.39-24.71-6.61-37.06C124.55,6.08,118.44,1,109.35,1h-7.23A33,33,0,0,0,91.86-31.94a32.9,32.9,0,0,0-21.54-8Z" transform="translate(-0.42 39.97)"/></svg>