<svg width="457" height="320" viewBox="0 0 457 320" fill="none" xmlns="http://www.w3.org/2000/svg">
<rect width="457" height="320" fill="#EFF0F6"/>
<path d="M206 154.078C206 150.031 209.281 146.75 213.328 146.75V146.75C215.778 146.75 218.066 145.525 219.425 143.487L219.5 143.375C220.906 141.266 223.272 140 225.806 140H231.194C233.728 140 236.094 141.266 237.5 143.375L237.575 143.487C238.934 145.525 241.222 146.75 243.672 146.75V146.75C247.719 146.75 251 150.031 251 154.078V171.5C251 176.471 246.971 180.5 242 180.5H215C210.029 180.5 206 176.471 206 171.5V154.078Z" stroke="#7993AF" stroke-width="4.5" stroke-linecap="round" stroke-linejoin="round"/>
<circle cx="228.5" cy="162.5" r="9" stroke="#7993AF" stroke-width="4.5" stroke-linecap="round" stroke-linejoin="round"/>
</svg>
