<svg width="250" height="250" viewBox="0 0 250 250" fill="none" xmlns="http://www.w3.org/2000/svg">
<rect width="250" height="250" fill="#EFF0F6"/>
<path d="M102 117.078C102 113.031 105.281 109.75 109.328 109.75V109.75C111.778 109.75 114.066 108.525 115.425 106.487L115.5 106.375C116.906 104.266 119.272 103 121.806 103H127.194C129.728 103 132.094 104.266 133.5 106.375L133.575 106.487C134.934 108.525 137.222 109.75 139.672 109.75V109.75C143.719 109.75 147 113.031 147 117.078V134.5C147 139.471 142.971 143.5 138 143.5H111C106.029 143.5 102 139.471 102 134.5V117.078Z" stroke="#7993AF" stroke-width="4.5" stroke-linecap="round" stroke-linejoin="round"/>
<circle cx="124.5" cy="125.5" r="9" stroke="#7993AF" stroke-width="4.5" stroke-linecap="round" stroke-linejoin="round"/>
</svg>
