<svg width="24" height="20" viewBox="0 0 24 20" fill="none" xmlns="http://www.w3.org/2000/svg">
<path d="M5.67969 1L21.6797 17" stroke="#14142B" stroke-width="2" stroke-linecap="round"/>
<path fill-rule="evenodd" clip-rule="evenodd" d="M14.0546 2.79034C14.2347 2.26823 14.8039 1.99094 15.326 2.171C18.4478 3.24759 21.0835 5.65277 22.8918 8.80242C23.3668 9.62974 23.4799 10.6014 23.2316 11.4974C23.084 12.0296 22.5329 12.3414 22.0007 12.1939C21.4685 12.0463 21.1567 11.4953 21.3042 10.9631C21.4117 10.5756 21.3626 10.1557 21.1573 9.79824C19.5394 6.98025 17.2514 4.95057 14.674 4.06172C14.1519 3.88167 13.8746 3.31245 14.0546 2.79034ZM8.7503 2.94112C8.95814 3.45281 8.71183 4.0361 8.20014 4.24394C5.82167 5.21006 3.71737 7.15927 2.2022 9.79833C1.9326 10.2679 1.9326 10.8449 2.2022 11.3145C4.42466 15.1854 7.89339 17.5564 11.6798 17.5564C14.367 17.5564 16.8801 16.3688 18.9146 14.299C19.3017 13.9051 19.9349 13.8996 20.3288 14.2868C20.7226 14.6739 20.7281 15.3071 20.341 15.7009C17.9956 18.0871 14.9897 19.5564 11.6798 19.5564C6.99415 19.5564 2.94527 16.6255 0.467746 12.3103C-0.155911 11.2241 -0.155916 9.88876 0.467735 8.80251C2.16221 5.85116 4.58162 3.55506 7.44748 2.39097C7.95917 2.18313 8.54246 2.42944 8.7503 2.94112Z" fill="#14142B"/>
<path d="M14.5892 9.82513C14.748 10.457 14.6968 11.1233 14.4434 11.7235C14.1899 12.3236 13.748 12.825 13.1844 13.1517C12.6208 13.4785 11.9662 13.6129 11.3194 13.5347C10.6726 13.4564 10.0689 13.1698 9.59949 12.7181C9.13007 12.2663 8.82045 11.6741 8.71743 11.0308C8.61441 10.3875 8.7236 9.72817 9.02848 9.15243C9.33337 8.5767 9.81738 8.11586 10.4074 7.83956C10.9973 7.56327 11.6612 7.48653 12.2987 7.62095" stroke="#14142B" stroke-width="2"/>
</svg>
