<svg id="Слой_1" data-name="Слой 1" xmlns="http://www.w3.org/2000/svg" viewBox="0 0 139.75 133.65"><defs><style>.cls-1{fill:#4fa7ee;}.cls-2{fill:#fff;}</style></defs><title>calendar</title><path class="cls-1" d="M33.53-11.45H-88.14v2.74q0,21.08,0,42.15c0,11.28,7.74,18.62,19.63,18.63l82.43,0c11.79,0,19.62-7.47,19.62-18.7q0-21.07,0-42.16Z" transform="translate(97.14 72.55)"/><path class="cls-2" d="M33.53-11.45v2.69q0,21.08,0,42.16c0,11.23-7.83,18.7-19.62,18.7l-82.43,0c-11.89,0-19.62-7.35-19.63-18.63q0-21.07,0-42.15v-2.74H33.53m0-9H-88.14a9,9,0,0,0-9,9V4q0,14.72,0,29.44c0,16.25,11.79,27.61,28.63,27.62l82.43,0c8.14,0,15.21-2.64,20.44-7.63A27.27,27.27,0,0,0,42.55,33.4q0-14.65,0-29.31V-11.45a9,9,0,0,0-9-9Z" transform="translate(97.14 72.55)"/><path class="cls-1" d="M33.53-23.13a21.12,21.12,0,0,0-5.86-16.53c-7.29-7.43-17.24-6.72-18.42-6.62,0-3.95,0-7.53,0-11.11A5.72,5.72,0,0,0,5.49-63a6.15,6.15,0,0,0-8.65,5.68c-.13,3.57,0,7.15,0,10.91H-51.41v-3.46c0-2.59.16-5.2,0-7.79a6.15,6.15,0,0,0-9.17-5.07,5.81,5.81,0,0,0-3.24,5.51V-46.2c-.92-.08-12.16-.94-19.38,7.45a20.56,20.56,0,0,0-4.68,15.62Z" transform="translate(97.14 72.55)"/><path class="cls-2" d="M2.93-63.55A6.83,6.83,0,0,1,5.49-63a5.72,5.72,0,0,1,3.75,5.65c0,3.58,0,7.16,0,11.11.23,0,.81-.06,1.64-.06,3.37,0,10.93.72,16.78,6.68a21.12,21.12,0,0,1,5.86,16.53H-87.92a20.56,20.56,0,0,1,4.68-15.62c5.79-6.74,14.18-7.51,17.74-7.51.88,0,1.46,0,1.64.06V-57.26a5.81,5.81,0,0,1,3.24-5.51,6.59,6.59,0,0,1,3.06-.78,6.13,6.13,0,0,1,6.11,5.85c.2,2.59,0,5.2,0,7.79v3.46H-3.18c0-3.76-.11-7.34,0-10.91a6.13,6.13,0,0,1,6.09-6.19m0-9h0A15.19,15.19,0,0,0-12.15-57.68c0,.75,0,1.49-.06,2.23H-42.35c0-.95,0-1.93-.12-2.93A15.12,15.12,0,0,0-57.56-72.55a15.66,15.66,0,0,0-7.26,1.82,14.78,14.78,0,0,0-8,13.46v2.78a30.65,30.65,0,0,0-17.2,9.88A29.34,29.34,0,0,0-96.85-22a9,9,0,0,0,8.93,7.91H33.53a9,9,0,0,0,8.95-8.1A30.13,30.13,0,0,0,34.09-46a31,31,0,0,0-15.84-8.59c0-1,0-1.95,0-2.93A14.72,14.72,0,0,0,8.88-71.37a15.55,15.55,0,0,0-6-1.18Z" transform="translate(97.14 72.55)"/></svg>