<svg id="Слой_1" data-name="Слой 1" xmlns="http://www.w3.org/2000/svg" viewBox="0 0 204.43 99.99"><defs><style>.cls-1{fill:#4fa7ee;}.cls-2{fill:#fff;}</style></defs><title>car</title><path class="cls-1" d="M-28.09,17.13H-55.81c-3,0-3,0-3.59,2.83-1.53,7.93-9.33,14.87-17.72,15.92a21,21,0,0,1-23.35-16.29c-.59-2.66-.32-2.45-3-2.46-3,0-6.09,0-9.14,0-5.42-.08-7.86-2.49-7.89-7.84q0-9.48,0-19c0-5,2-7.14,7.05-7.8,4.78-.64,9.56-1.32,14.35-1.87a6.4,6.4,0,0,0,3.65-1.55c5.7-4.9,11.32-9.89,17.16-14.61a114.82,114.82,0,0,1,11.49-8.1c3.18-2,6.92-2.31,10.63-2.31,12.81,0,25.62,0,38.42,0a13.46,13.46,0,0,1,4.55,1c3.63,1.36,6.65,2.62,9.43,3.88,0,0,6.14,3.44,24.36,12.69C32.09-22.52,38-19.82,42.31-18.93c11.86,2.42,16.4,1.67,20.27,6.22C66.1-8.57,66-2.8,65.85,2.83a27,27,0,0,1-2.62,10,6.27,6.27,0,0,1-2,2.48A7.93,7.93,0,0,1,58,16.51a24.28,24.28,0,0,1-5.88.62c-1.82,0-3.63.07-5.44,0a2.65,2.65,0,0,0-1.82.4A2.66,2.66,0,0,0,44,19.3a19,19,0,0,1-7.18,12C26.21,40.16,9.58,36.14,4.24,23.4A23,23,0,0,1,2.9,19,2,2,0,0,0,.56,17.1c-5.35.07-10.7,0-16.06,0ZM-9.35-20.61c6.51,0,13,0,19.51,0A14.18,14.18,0,0,0,12-20.86,8,8,0,0,0,10.65-22c-6.62-3.58-13.3-7-19.87-10.7a33.12,33.12,0,0,0-19-4c-2.07.15-2.13.08-2.15,2.06,0,3.93,0,7.87,0,11.8,0,2.25.05,2.29,2.51,2.29C-21.72-20.6-15.53-20.61-9.35-20.61Zm-48.29,0c5.45,0,10.9,0,16.34,0,1.23,0,2-.24,1.95-1.69-.06-4.34,0-8.69,0-13,0-1.07-.42-1.46-1.48-1.44-2.94,0-5.88.1-8.8,0A16.92,16.92,0,0,0-61.28-32.9c-4.38,3.53-8.63,7.22-12.91,10.86a4.28,4.28,0,0,0-.71,1.24,8.69,8.69,0,0,0,1.23.18ZM-79.92,26c5.23.42,11-4.58,10.93-10.87A10.92,10.92,0,0,0-79.9,4.55c-5.94,0-11,4.79-10.94,10.56A10.74,10.74,0,0,0-79.92,26ZM23.44,26c5.54.46,11.12-4.86,11-10.76A10.93,10.93,0,0,0,12.61,15C12.24,20.85,17.43,26,23.44,26Z" transform="translate(129.53 54.93)"/><path class="cls-2" d="M-38.35-45.93q10.29,0,20.59,0a13.46,13.46,0,0,1,4.55,1c3.63,1.36,6.65,2.62,9.43,3.88,0,0,6.14,3.44,24.36,12.69C32.09-22.52,38-19.82,42.31-18.93c11.86,2.42,16.4,1.67,20.27,6.22C66.1-8.57,66-2.8,65.85,2.83a27,27,0,0,1-2.62,10,6.27,6.27,0,0,1-2,2.48A7.93,7.93,0,0,1,58,16.51a24.43,24.43,0,0,1-5.38.62H51.25l-2.69,0c-.63,0-1.25,0-1.88,0l-.36,0a2.37,2.37,0,0,0-1.46.42A2.66,2.66,0,0,0,44,19.3a19,19,0,0,1-7.18,12,20.5,20.5,0,0,1-13.2,4.74A20.91,20.91,0,0,1,4.24,23.4,23,23,0,0,1,2.9,19,2,2,0,0,0,.63,17.1H.56q-3.58,0-7.17,0h-49.2c-3,0-3,0-3.59,2.83-1.53,7.93-9.33,14.87-17.72,15.92a22,22,0,0,1-2.79.18,21,21,0,0,1-20.56-16.47c-.53-2.37-.37-2.46-2.25-2.46h-6.75l-3.15,0c-5.42-.08-7.86-2.49-7.89-7.84q0-9.48,0-19c0-5,2-7.14,7.05-7.8,4.78-.64,9.56-1.32,14.35-1.87a6.4,6.4,0,0,0,3.65-1.55c5.7-4.9,11.32-9.89,17.16-14.61a114.82,114.82,0,0,1,11.49-8.1c3.18-2,6.92-2.31,10.63-2.31h17.83M-20-20.61H10.16A14.18,14.18,0,0,0,12-20.86,7.64,7.64,0,0,0,10.65-22c-6.62-3.58-13.3-7-19.87-10.7a32.71,32.71,0,0,0-16.17-4.15c-.95,0-1.91,0-2.88.11-2.07.15-2.13.08-2.15,2.06,0,3.93,0,7.87,0,11.8,0,2.25.05,2.29,2.51,2.29H-20m-43.34,0H-49l7.66,0h0c1.2,0,1.92-.26,1.9-1.69-.06-4.34,0-8.69,0-13,0-1-.41-1.44-1.44-1.44h0c-1.7,0-3.4,0-5.1,0-1.23,0-2.47,0-3.7-.07l-.8,0a16.92,16.92,0,0,0-10.84,3.9c-4.38,3.53-8.63,7.22-12.91,10.86a4.28,4.28,0,0,0-.71,1.24,8.69,8.69,0,0,0,1.23.18h10.36M24.11,26c5.31,0,10.44-5.13,10.34-10.79A10.91,10.91,0,0,0,23.68,4.54h-.24A10.8,10.8,0,0,0,12.61,15C12.24,20.85,17.43,26,23.44,26c.22,0,.45,0,.67,0M-80.34,26h.42c.21,0,.41,0,.62,0,5,0,10.39-4.85,10.31-10.9A10.91,10.91,0,0,0-79.88,4.55h0c-5.94,0-11,4.79-10.94,10.56A10.76,10.76,0,0,0-80.34,26m42-80.94H-56.18c-4.7,0-10.21.44-15.38,3.67a123.24,123.24,0,0,0-12.39,8.73c-4.56,3.69-9,7.54-13.3,11.26l-3.5,3c-3.46.41-6.92.87-10.27,1.33l-3.63.49c-9.52,1.26-14.8,7.18-14.86,16.66,0,5.94,0,12.18,0,19.07.06,10.21,6.48,16.64,16.77,16.79l3.27,0h1.61a29.86,29.86,0,0,0,28,18.92A32.37,32.37,0,0,0-76,44.81,30.87,30.87,0,0,0-51.88,26.13H-4.36l.3.74a29.84,29.84,0,0,0,27.7,18.18,29.7,29.7,0,0,0,19-6.82,29.1,29.1,0,0,0,8.91-12.12h1.11a32.65,32.65,0,0,0,7.29-.83,16.56,16.56,0,0,0,6.71-2.8,15.15,15.15,0,0,0,4.72-5.83A35.38,35.38,0,0,0,74.84,3h0c.15-6.6.34-14.83-5.41-21.58-5-5.84-10.8-6.77-17.55-7.83-2.23-.35-4.75-.75-7.77-1.37-3.42-.7-9.48-3.57-19.46-8.64-17.71-9-24-12.48-24-12.52-.22-.12-.44-.23-.67-.33h0C-3.14-50.64-6.4-52-10-53.36a22.27,22.27,0,0,0-7.66-1.52c-6,0-12.56,0-20.65,0ZM24.08,17l-.57,0A2.27,2.27,0,0,1,22,16.28a1.24,1.24,0,0,1-.37-.72c.11-1.82,1.33-2,1.85-2a1.93,1.93,0,0,1,2,1.86A2.35,2.35,0,0,1,24.08,17ZM-80.34,17a1.82,1.82,0,0,1-1.5-2,1.2,1.2,0,0,1,.39-.77,2.24,2.24,0,0,1,1.57-.66A1.93,1.93,0,0,1-78,15.23,2.26,2.26,0,0,1-79.36,17l-.56,0Z" transform="translate(129.53 54.93)"/><ellipse class="cls-2" cx="49.52" cy="69.71" rx="9.4" ry="8.93"/><ellipse class="cls-2" cx="152.4" cy="69.71" rx="9.4" ry="8.93"/></svg>