<svg id="Слой_1" data-name="Слой 1" xmlns="http://www.w3.org/2000/svg" viewBox="0 0 144.36 138.35"><defs><style>.cls-1{fill:#fff;}.cls-2{fill:#4fa7ee;}</style></defs><title>color</title><ellipse class="cls-1" cx="108.3" cy="57.42" rx="15.55" ry="19.28"/><ellipse class="cls-1" cx="56.65" cy="62.12" rx="38.09" ry="43.72"/><path class="cls-2" d="M8.55,5.93C3.43,5.93-1.71,5.69-6.81,6c-9.87.56-13.75,8.22-8.26,16,1.38,1.95,2.89,3.82,4.21,5.8,4.75,7.13,1,14.76-7.89,16C-49.84,48.15-81.4,27.43-88.39-2-96.07-34.21-76-66-42.91-74-9.42-82.2,24-64.09,33.88-32.33a55.08,55.08,0,0,1,1,28.88c-1.36,6-5.64,9.22-12,9.32-4.76.08-9.54,0-14.31,0Zm-24.3-59.75A10.88,10.88,0,0,0-26.5-64.65C-32.75-64.85-38-60-38.14-54.12c-.08,5.74,4.79,10.64,10.8,10.85A11,11,0,0,0-15.75-53.82Zm23,32.25c6.09.09,11.22-4.47,11.44-10.18a11,11,0,0,0-11-11.1C1.37-43-3.84-38.09-3.81-32.15A11,11,0,0,0,7.24-21.57ZM-61.29-42.85A10.83,10.83,0,0,0-72.4-32.4c-.11,6.08,4.83,10.86,11.21,10.82s11.33-5,11.17-10.92C-50.18-38.22-55.26-42.88-61.29-42.85ZM-44.37,6.08A10.73,10.73,0,0,0-55.09-4.71C-61.43-4.93-66.65-.26-66.76,5.72-66.86,11.44-62,16.34-56,16.56A11,11,0,0,0-44.37,6.08Z" transform="translate(99.04 85)"/><path class="cls-1" d="M-26.8-76C.76-76,25.62-59,33.88-32.33a55.08,55.08,0,0,1,1,28.88c-1.36,6-5.64,9.22-12,9.32-1.83,0-3.66,0-5.49,0l-8.82,0v0c-3.18,0-6.38-.09-9.57-.09-1.93,0-3.86,0-5.79.14-9.87.56-13.75,8.22-8.26,16,1.38,1.95,2.89,3.82,4.21,5.8,4.75,7.13,1,14.76-7.89,16a59.17,59.17,0,0,1-8.39.59C-55.32,44.35-82,24.79-88.39-2-96.07-34.21-76-66-42.91-74A67.84,67.84,0,0,1-26.8-76m-.12,32.73A10.94,10.94,0,0,0-15.75-53.82,10.88,10.88,0,0,0-26.5-64.65h-.38c-6.09,0-11.18,4.72-11.26,10.53s4.79,10.64,10.8,10.85h.42M7.43-21.57c6,0,11-4.53,11.25-10.18a11,11,0,0,0-11-11.1h-.2C1.26-42.86-3.84-38-3.81-32.15A11,11,0,0,0,7.24-21.57h.19m-68.69,0h.07c6.31,0,11.33-5,11.17-10.92-.16-5.7-5.21-10.35-11.22-10.35h0A10.83,10.83,0,0,0-72.4-32.4c-.11,6.06,4.8,10.82,11.14,10.82m5.71,38.15A10.93,10.93,0,0,0-44.37,6.08,10.73,10.73,0,0,0-55.09-4.71h-.41c-6.16,0-11.15,4.59-11.26,10.44S-62,16.34-56,16.56h.44M-26.8-85A77.32,77.32,0,0,0-45-82.8,70.81,70.81,0,0,0-88.56-51.88a67.43,67.43,0,0,0-8.59,52c7.22,30.34,37.32,53.22,70,53.22a70.47,70.47,0,0,0,9.65-.67C-10,51.62-4.1,47.49-1.35,41.35c2.65-5.91,1.91-12.69-2-18.59-.92-1.38-1.86-2.63-2.76-3.84-.57-.76-1.1-1.47-1.6-2.17a5.75,5.75,0,0,1-.74-1.35A6.28,6.28,0,0,1-6.3,15c1.55-.08,3.23-.12,5.28-.12,1.53,0,3.05,0,4.66,0s3.26,0,4.91,0c.3,0,.58,0,.87,0h8c2.16,0,3.95,0,5.63,0C33.64,14.71,41.35,8.6,43.62-1.46A64,64,0,0,0,42.48-35C33.19-64.91,5.35-85-26.8-85Zm-.12,32.73H-27A2.12,2.12,0,0,1-29.14-54a2.15,2.15,0,0,1,2.26-1.66h.09a1.93,1.93,0,0,1,2,1.71,2,2,0,0,1-2.17,1.67ZM7.43-30.57h0A2.06,2.06,0,0,1,5.19-32.2a1.42,1.42,0,0,1,.45-.94,2.58,2.58,0,0,1,1.81-.72,2.5,2.5,0,0,1,1.81.74,1.39,1.39,0,0,1,.43,1c0,.7-1,1.53-2.26,1.53Zm-68.69,0A2.37,2.37,0,0,1-63-31.2a1.36,1.36,0,0,1-.4-1.05c0-.91.94-1.6,2.15-1.6A2.15,2.15,0,0,1-59-32.25a1.26,1.26,0,0,1-.42,1,2.45,2.45,0,0,1-1.8.7Zm5.71,38.15h-.11a2.11,2.11,0,0,1-2.1-1.68c0-.89,1-1.61,2.26-1.61h.11c1,0,2,.56,2,1.64a2,2,0,0,1-2.18,1.65Z" transform="translate(99.04 85)"/></svg>