<svg id="Слой_1" data-name="Слой 1" xmlns="http://www.w3.org/2000/svg" viewBox="0 0 179.24 145.8"><defs><style>.cls-1{fill:#fff;}.cls-2{fill:#4fa7ee;}</style></defs><title>door</title><rect class="cls-1" x="40.13" y="29.69" width="116.73" height="34.79"/><path class="cls-2" d="M54-9.77V44.74c0,9.28-5.4,14.39-15.24,14.39H-74.91c-9.81,0-16.75-4.9-19.58-13.82-3.85-12.13-7.73-24.24-11.5-36.39-2.81-9.07-.82-17.24,5.78-24.28,12-12.8,24-25.64,36.26-38.22A48.56,48.56,0,0,1-28.64-68.52c26.67-.27,53.35,0,80-.12,2.18,0,2.63.65,2.62,2.58C53.93-47.3,54-28.54,54-9.77Zm-76.86-1.4v0c20.18,0,40.36,0,60.54,0,2.09,0,3-.37,2.94-2.6-.11-13.19-.07-26.37,0-39.55,0-1.82-.42-2.52-2.49-2.51-22.32.08-44.63-.08-66.95.14a35.82,35.82,0,0,0-11.51,2,37.39,37.39,0,0,0-14.16,9.24C-68.79-30.64-83.15-14.83-85.87-11.83ZM27,14.45v0c3.82,0,7.63-.06,11.45,0,1.63,0,2.18-.49,2.13-2-.09-2.95-.07-5.9,0-8.85,0-1.45-.54-1.91-2-1.9q-11.44.06-22.89,0c-1.5,0-2,.49-2,1.9.08,3,.1,6.08,0,9.11,0,1.53.72,1.81,2.11,1.79C19.51,14.41,23.24,14.45,27,14.45Z" transform="translate(116.24 77.66)"/><path class="cls-1" d="M4.61-68.66c11.3,0,22.59,0,33.89,0H51.41c2.15,0,2.6.66,2.59,2.58-.07,18.76,0,37.52,0,56.29V44.74c0,9.28-5.4,14.39-15.24,14.39H-74.91c-9.81,0-16.75-4.9-19.58-13.82-3.85-12.13-7.73-24.24-11.5-36.39-2.81-9.07-.82-17.24,5.78-24.28,12-12.8,24-25.64,36.26-38.22A48.56,48.56,0,0,1-28.64-68.52q16.62-.17,33.25-.14M22.37-55.79H3.07c-10.64,0-21.28,0-31.93.12a35.82,35.82,0,0,0-11.51,2,37.39,37.39,0,0,0-14.16,9.24C-68.79-30.64-83.15-14.83-85.87-11.83l63,.66v0H4q16.83,0,33.64,0h.06c2,0,2.89-.39,2.88-2.6-.11-13.19-.07-26.37,0-39.55,0-1.81-.42-2.51-2.46-2.51h0q-7.86,0-15.72,0M15.65,14.47h.14c1.61,0,3.21,0,4.82,0H27v0l6.6,0c1.62,0,3.23,0,4.85.05h.16c1.51,0,2-.54,2-2-.09-2.95-.07-5.9,0-8.85,0-1.43-.53-1.9-2-1.9h0c-3.84,0-7.69,0-11.53,0s-7.58,0-11.36,0h-.05c-1.46,0-2,.5-1.95,1.9.08,3,.1,6.08,0,9.11,0,1.48.67,1.79,2,1.79m-11-92.13c-13.43,0-23.71,0-33.34.14A57.81,57.81,0,0,0-70.4-59.86c-10.68,11-21.29,22.26-31.55,33.2l-4.82,5.14c-8.89,9.47-11.59,20.91-7.81,33.1,3.1,10,6.34,20.2,9.47,30l2,6.43c4,12.58,14.53,20.09,28.16,20.09H38.73C53.44,68.13,63,59,63,44.74v-67C63-36.61,63-51.44,63-66a11.47,11.47,0,0,0-3.14-8.42,11.43,11.43,0,0,0-8.45-3.19H21.57l-17,0Zm-70,57C-60.23-26.07-54.21-32.25-48.26-38a28.42,28.42,0,0,1,10.85-7.2,26.86,26.86,0,0,1,8.64-1.46c11.11-.11,22.33-.12,31.84-.12H31.55c-.05,9.91-.05,18.6,0,26.62L4-20.2H-22.9l-.58,0-30.81-.33-11.13-.12Z" transform="translate(116.24 77.66)"/></svg>