<svg id="Слой_1" data-name="Слой 1" xmlns="http://www.w3.org/2000/svg" viewBox="0 0 131.3 133.65"><defs><style>.cls-1{fill:#4fa7ee;}.cls-2{fill:#fff;}</style></defs><title>fuel</title><path class="cls-1" d="M24.39,98a15.73,15.73,0,0,1-6.23-1.26,15.36,15.36,0,0,1-3.4-1.94,15.18,15.18,0,0,1-4.62-5.64c-.14-.28-.26-.55-.38-.83l0-.11A14.73,14.73,0,0,1,8.66,82.7V-7.58c0-10.53,8.84-19.09,19.71-19.09h52.2a20.15,20.15,0,0,1,9.7,2.47l.35.19h0a20.76,20.76,0,0,1,2.21,1.48c.38.28.75.59,1.11.91l.15.13a19.07,19.07,0,0,1,3.77,4.71l.06.11a4.52,4.52,0,0,1,.23.5,18.53,18.53,0,0,1,1.9,5.78,2.6,2.6,0,0,0,.11.27,3.71,3.71,0,0,0,1.33.4c12.35,2.31,21.18,8.78,26.28,19.22a29.48,29.48,0,0,1,3.19,13q0,6.66,0,13.32,0,10.31,0,20.6c-.07,14.12-12.09,25.74-26.8,25.9H103c-.69,0-1.44,0-2.07,0,0,.11-.2,2.64-.21,2.71-.35,3.5-2.65,6.28-4.58,8a16.17,16.17,0,0,1-5.42,3.7l-.32.13A15.93,15.93,0,0,1,84.55,98Zm76.42-83.75c.08,5,.06,10.13,0,15.05q0,3.4,0,6.81V57.49c0,.55,0,1.2,0,1.79.65,0,1.42-.12,2.21-.2a8.57,8.57,0,0,0,2.46-.85c1.09-.49,1.09-.79,1.09-1.16l0-7.16c0-9.33.06-19-.1-28.45C106.47,18.69,103.87,15.54,100.81,14.22ZM37.86-.11a2.61,2.61,0,0,0-1.42,2.26v8.47A2.89,2.89,0,0,0,39.5,13.3H70.19a3.2,3.2,0,0,0,1.07-.17,2.68,2.68,0,0,0,1.41-2.31V2.3a2.87,2.87,0,0,0-3-2.73H39.26A3.23,3.23,0,0,0,37.86-.11Z" transform="translate(-4.16 31.18)"/><path class="cls-2" d="M60.05-22.18H80.57a15.63,15.63,0,0,1,7.75,2l.05,0h0A15.4,15.4,0,0,1,90.1-19c.3.23.58.46.86.71l0,0a14.48,14.48,0,0,1,3,3.66l0,0,.09.24a14,14,0,0,1,1.59,4.87l0,.11a5.74,5.74,0,0,0,.85,1.83,5.2,5.2,0,0,0,.55.62,6.82,6.82,0,0,0,3.6,1.55c10.51,2,18.47,7.39,23,16.77a25,25,0,0,1,2.73,11c0,11.3,0,22.6,0,33.9-.06,11.78-10,21.28-22.35,21.42H103c-4.94,0-6,0-6.43,2.93-.09.6-.09.9-.27,3.21,0,.39-.05.59-.06.65C96,86.84,94.05,88.85,93,89.84a11.7,11.7,0,0,1-1.48,1.33A11.1,11.1,0,0,1,89,92.6l-.24.1a11.49,11.49,0,0,1-4.17.77H24.39a11.44,11.44,0,0,1-4.47-.9,11,11,0,0,1-2.45-1.4,10.54,10.54,0,0,1-3.28-4c-.11-.2-.2-.42-.29-.63a10.4,10.4,0,0,1-.74-3.83V-7.58c0-8.06,6.82-14.59,15.21-14.59H60.05M39.5,17.8H70.19a7.72,7.72,0,0,0,2.9-.55,7.19,7.19,0,0,0,4.08-6.43V2.3a7.36,7.36,0,0,0-7.49-7.23H39.26a7.63,7.63,0,0,0-3.5.84,7.12,7.12,0,0,0-3.82,6.24v8.47A7.38,7.38,0,0,0,39.5,17.8m60.2,46c1,0,2.2-.11,3.8-.27a12.28,12.28,0,0,0,3.86-1.23c2.39-1.07,3.74-2.77,3.74-5.26,0-11.9.12-23.8-.09-35.69-.09-5.57-5.38-11-10.94-12.08a7.91,7.91,0,0,0-1.61-.2,1.81,1.81,0,0,0-1.93,1.11,4.81,4.81,0,0,0-.27,2c.18,8,.06,15.94.06,23.91V57.49a24.33,24.33,0,0,0,.21,4.19c.32,1.65,1.13,2.15,3.17,2.15m-39.65-95H28.37C15-31.17,4.16-20.59,4.16-7.58V82.7a19.32,19.32,0,0,0,1.38,7.16L5.6,90c.11.26.27.64.48,1.08a19.7,19.7,0,0,0,6,7.3,19.29,19.29,0,0,0,4.39,2.5,20.15,20.15,0,0,0,7.92,1.59H84.55A20.66,20.66,0,0,0,92,101.09l.27-.11.15-.06a20.27,20.27,0,0,0,6.84-4.64A18.12,18.12,0,0,0,105,86.77,32,32,0,0,0,126.09,78a29.81,29.81,0,0,0,9.35-21.54c0-6.91,0-13.92,0-20.69q0-6.63,0-13.24a34.05,34.05,0,0,0-3.64-14.95C126.36-3.66,116.73-11,103.91-13.83a23.26,23.26,0,0,0-1.67-4.23c-.1-.23-.2-.46-.32-.68l-.15-.28a23.47,23.47,0,0,0-4.62-5.77L96.91-25c-.44-.39-.89-.76-1.36-1.12a26.83,26.83,0,0,0-2.61-1.73l-.65-.35a24.68,24.68,0,0,0-11.72-3H60.05ZM40.94,4.07H68.17V8.8H40.94V4.07Z" transform="translate(-4.16 31.18)"/><rect class="cls-2" x="33.57" y="32.51" width="32.64" height="10.34"/></svg>