<svg id="Слой_1" data-name="Слой 1" xmlns="http://www.w3.org/2000/svg" viewBox="0 0 152.45 145.86"><defs><style>.cls-1{fill:#fff;}.cls-2{fill:#4fa7ee;}</style></defs><title>run</title><rect class="cls-1" x="31.36" y="29.75" width="97.93" height="91.2"/><path class="cls-2" d="M222.05,103.36a72.79,72.79,0,0,1-50.63-20,66.86,66.86,0,0,1-21-48.71,66.1,66.1,0,0,1,21.12-48.41,73.88,73.88,0,0,1,51-19.76A72.45,72.45,0,0,1,273-13.59a66.58,66.58,0,0,1,1.26,95.75,73,73,0,0,1-52.14,21.2ZM179.64,47.43c1.41,5.48,5.53,11.22,7,13,1.15,1.37,7.26,8.37,15.68,12.3l.28.13c.3-1,.63-3,.42-7.39-.24-4.71-.46-9.11-3.78-12.47-1.9-1.92-3.95-2.68-8.78-4.33a39.76,39.76,0,0,0-10.09-1.26Zm74.5,1.26c-4.82,1.65-6.87,2.41-8.78,4.34-3.33,3.37-3.54,7.79-3.77,12.46-.21,4.37.12,6.43.41,7.39l.3-.14c8.41-3.92,14.52-10.92,15.66-12.28.06-.07,5.37-6.48,7.05-13h-.77A39.89,39.89,0,0,0,254.14,48.69ZM178.37,22.47l.76,0q21.59,0,43.17,0t43.16,0l.73,0a4.71,4.71,0,0,0-.14-.48c-5.73-17.88-23.58-30.4-43.4-30.46h-.17c-20.26,0-37.89,12.13-43.88,30.19C178.51,22,178.43,22.26,178.37,22.47Z" transform="translate(-145.96 38)"/><path class="cls-1" d="M222.56-29h0c37,0,66.78,28.46,66.84,63.9s-29.9,64-67.33,64h0c-37.25,0-67.11-28.57-67.09-64.18S184.94-29,222.56-29m-.26,56q21.58,0,43.16,0c5,0,6.31-1.89,4.88-6.37C264.05,1,244.33-12.9,222.66-13h-.18C200.24-13,181,.35,174.33,20.3c-1.64,5-.5,6.69,4.8,6.69q21.59,0,43.17,0m19,50.61a7.22,7.22,0,0,0,2.85-.81,54.14,54.14,0,0,0,17.22-13.49s6.31-7.5,8.11-15.4a4.28,4.28,0,0,0-.44-3.62c-.35-.43-1-1.31-3.81-1.38h-1a43.15,43.15,0,0,0-11.45,1.47c-5,1.69-7.9,2.7-10.63,5.46-4.54,4.61-4.82,10.39-5.06,15.41-.14,2.82-.52,10.78,3.09,12.16a3.08,3.08,0,0,0,1.15.21m-38,0a3,3,0,0,0,1.14-.21c3.62-1.38,3.24-9.34,3.1-12.16-.25-5-.52-10.8-5.06-15.41-2.74-2.76-5.67-3.77-10.63-5.46a43.18,43.18,0,0,0-11.46-1.47h-1c-2.85.07-3.48,1-3.82,1.38a4.28,4.28,0,0,0-.43,3.62c1.8,7.9,8.11,15.4,8.11,15.4a54,54,0,0,0,17.22,13.49,7.17,7.17,0,0,0,2.85.81M222.57-38h0c-20.5,0-39.7,7.45-54.06,21A70.57,70.57,0,0,0,146,34.67a71.29,71.29,0,0,0,22.35,52,77.23,77.23,0,0,0,53.74,21.23c21.21,0,40.86-8,55.35-22.52a71.08,71.08,0,0,0-1.33-102.19A77,77,0,0,0,222.57-38ZM185,18c6.76-13.33,21.16-22,37.47-22h.15c15.83.05,30.25,8.84,36.93,22L222.3,18c-12.36,0-24.87,0-37.29,0Zm80.25,34ZM198.54,65.29a47.87,47.87,0,0,1-8.4-7.72,39.71,39.71,0,0,1-3.49-5.11c1.32.22,2.22.45,2.52.53,4.52,1.55,5.81,2.08,6.92,3.2,1.95,2,2.23,4.77,2.45,9.1ZM255.47,53c.31-.08,1.2-.31,2.52-.53a40.65,40.65,0,0,1-3.48,5.11,47.87,47.87,0,0,1-8.4,7.72c.21-4.33.5-7.12,2.46-9.1,1.1-1.12,2.39-1.65,6.9-3.2Z" transform="translate(-145.96 38)"/></svg>