<svg id="Слой_1" data-name="Слой 1" xmlns="http://www.w3.org/2000/svg" viewBox="0 0 144.3 137.99"><defs><style>.cls-1{fill:#4fa7ee;}.cls-2{fill:#fff;}</style></defs><title>transmission</title><path class="cls-1" d="M15.37,1c.06.86.14,1.44.14,2,0,7.82,0,15.63,0,23.44A2.72,2.72,0,0,1,14,29.19,13.54,13.54,0,0,0,7.7,44.89,14.61,14.61,0,0,0,21.86,55,14.76,14.76,0,0,0,36,44.85a13.6,13.6,0,0,0-6.37-15.69,2.56,2.56,0,0,1-1.49-2.52q.06-31.58,0-63.16a2.72,2.72,0,0,1,1.55-2.69A13.57,13.57,0,0,0,36-54.93,14.75,14.75,0,0,0,22-65,14.76,14.76,0,0,0,7.72-55c-1.88,6,.64,12.29,6.16,15.83A3.42,3.42,0,0,1,15.45-37c.11,8.14.07,16.29.06,24.43A10.75,10.75,0,0,1,15.28-11H9.83c-7.11,0-14.21,0-21.32,0A2.94,2.94,0,0,1-14-12.26C-15.5-14-17.35-15.4-18.94-17a3.85,3.85,0,0,1-1.22-2.2c-.1-5.82-.12-11.65,0-17.47A3.26,3.26,0,0,1-18.81-39c5.67-3.57,8.25-9.81,6.42-15.91C-14.12-60.74-20-65-26.39-65A14.74,14.74,0,0,0-40.66-55,13.54,13.54,0,0,0-34.3-39.15a2.57,2.57,0,0,1,1.45,2.55c0,5.76,0,11.52,0,17.28a2.72,2.72,0,0,1-1.31,2.43c-1.82,1.39-3.31,3.15-5,4.66a4.14,4.14,0,0,1-2.3,1.17c-6.13.1-12.26.08-18.39.05-5,0-8.55-3.13-8.68-7.85-.16-6.08-.1-12.18,0-18.27a3.24,3.24,0,0,1,1.53-2c5.47-3.45,8-9.76,6.26-15.61A14.63,14.63,0,0,0-75-65a14.73,14.73,0,0,0-14,10,13.58,13.58,0,0,0,6,15.64,3.14,3.14,0,0,1,1.78,3.16c-.08,5.63,0,11.25,0,16.88C-81.21-7.8-72.06.93-60,1q9.19.06,18.39,0a2.88,2.88,0,0,1,2.52,1.28,32.16,32.16,0,0,0,4.81,4.59,2.69,2.69,0,0,1,1.39,2.38c0,5.76-.06,11.52,0,17.28a2.71,2.71,0,0,1-1.61,2.66A13.67,13.67,0,0,0-40.7,45,14.73,14.73,0,0,0-26.9,55a14.71,14.71,0,0,0,14.32-9.64,13.44,13.44,0,0,0-6.06-16.11,2.82,2.82,0,0,1-1.61-2.86c.05-5.69,0-11.39,0-17.08a2.7,2.7,0,0,1,1.32-2.42c1.81-1.39,3.34-3.12,5-4.68.5-.46,1.12-1.14,1.69-1.14C-3.1,1,6,1,15.37,1Z" transform="translate(98.71 73.99)"/><path class="cls-2" d="M-26.46-65h.07c6.39,0,12.27,4.25,14,10.07,1.83,6.1-.75,12.34-6.42,15.91a3.26,3.26,0,0,0-1.36,2.3c-.11,5.82-.09,11.65,0,17.47A3.85,3.85,0,0,0-18.94-17C-17.35-15.4-15.5-14-14-12.26A2.94,2.94,0,0,0-11.52-11h0C-8-11-4.52-11-1-11H15.28a10.75,10.75,0,0,0,.23-1.51c0-8.14.05-16.29-.06-24.43a3.42,3.42,0,0,0-1.57-2.2C8.36-42.7,5.84-49,7.72-55A14.76,14.76,0,0,1,21.93-65H22A14.75,14.75,0,0,1,36-54.93a13.57,13.57,0,0,1-6.29,15.72,2.72,2.72,0,0,0-1.55,2.69q.06,31.59,0,63.16a2.56,2.56,0,0,0,1.49,2.52A13.6,13.6,0,0,1,36,44.85,14.76,14.76,0,0,1,21.86,55h0A14.59,14.59,0,0,1,7.7,44.89,13.54,13.54,0,0,1,14,29.19a2.72,2.72,0,0,0,1.52-2.72c0-7.81,0-15.62,0-23.44,0-.58-.08-1.16-.14-2H5C-.75,1-6.49,1-12.22,1.07c-.57,0-1.19.68-1.69,1.14-1.68,1.56-3.21,3.29-5,4.68a2.7,2.7,0,0,0-1.32,2.42c0,5.69.05,11.39,0,17.08a2.82,2.82,0,0,0,1.61,2.86,13.44,13.44,0,0,1,6.06,16.11A14.71,14.71,0,0,1-26.68,55h-.22A14.73,14.73,0,0,1-40.7,45,13.67,13.67,0,0,1-34.44,29.2a2.71,2.71,0,0,0,1.61-2.66c-.09-5.76-.08-11.52,0-17.28a2.69,2.69,0,0,0-1.39-2.38,32.16,32.16,0,0,1-4.81-4.59A2.89,2.89,0,0,0-41.55,1h0c-2.9,0-5.8,0-8.69,0Q-55.13,1-60,1C-72.06.93-81.21-7.8-81.27-19.3c0-5.63-.07-11.25,0-16.88A3.14,3.14,0,0,0-83-39.34a13.58,13.58,0,0,1-6-15.64A14.73,14.73,0,0,1-75-65h0A14.64,14.64,0,0,1-60.76-54.76C-59-48.91-61.55-42.6-67-39.15a3.24,3.24,0,0,0-1.53,2c-.11,6.09-.17,12.19,0,18.27.13,4.72,3.68,7.82,8.68,7.85l8.26,0c3.38,0,6.75,0,10.13-.07a4.14,4.14,0,0,0,2.3-1.17c1.72-1.51,3.21-3.27,5-4.66a2.72,2.72,0,0,0,1.31-2.43c0-5.76,0-11.52,0-17.28a2.57,2.57,0,0,0-1.45-2.55A13.54,13.54,0,0,1-40.66-55a14.74,14.74,0,0,1,14.2-10m0-9h0c-10.44,0-19.82,6.71-22.8,16.32a22.33,22.33,0,0,0,7.39,24.18c0,3.58,0,7.33,0,11.36-.58.53-1.11,1.06-1.61,1.56L-44-20c-2.34,0-4.84,0-7.58,0l-8,0c-.11-4.64-.08-9.24,0-13.43a22.76,22.76,0,0,0,7.45-23.94A23.6,23.6,0,0,0-75-74h-.06a23.81,23.81,0,0,0-22.6,16.31,22.39,22.39,0,0,0,7.38,24.23c0,4.52,0,9,0,13.44v.76a28.78,28.78,0,0,0,8.93,20.9A30.93,30.93,0,0,0-60,10q4.88,0,9.76,0h6.07c.74.76,1.51,1.5,2.32,2.21,0,4.09,0,7.76,0,11.23a22.69,22.69,0,0,0-7.45,24.09A23.66,23.66,0,0,0-27,64h.34A23.71,23.71,0,0,0-4.07,48.29a22.36,22.36,0,0,0-7.16-24.82c0-3.51,0-7.21,0-11.32.7-.65,1.34-1.29,1.94-1.89l.22-.22L5,10H6.51v.46c0,4.26,0,8.65,0,13A22.43,22.43,0,0,0-.89,47.6,23.6,23.6,0,0,0,21.83,64h.06A23.84,23.84,0,0,0,44.63,47.47a22.56,22.56,0,0,0-7.46-24c0-19.42,0-38.55,0-56.95A22.56,22.56,0,0,0,44.6-57.6,23.78,23.78,0,0,0,22-74h-.09A23.61,23.61,0,0,0-.86-57.7,22.54,22.54,0,0,0,6.48-33.44c0,4.47,0,9,0,13.42H-9c-.64-.63-1.26-1.19-1.85-1.73l-.38-.35c-.05-3.92-.06-7.67,0-11.35A22.75,22.75,0,0,0-3.76-57.5,23.64,23.64,0,0,0-26.35-74Z" transform="translate(98.71 73.99)"/></svg>