<svg id="Слой_1" data-name="Слой 1" xmlns="http://www.w3.org/2000/svg" viewBox="0 0 167.3 133.28"><defs><style>.cls-1{fill:#fff;}.cls-2{fill:#4fa7ee;}</style></defs><title>users</title><ellipse class="cls-1" cx="90.4" cy="69.75" rx="19.34" ry="22.75"/><path class="cls-2" d="M143.91,80.23c-7.52-21-32.38-31.06-53.86-21.42-3.83,1.72-6,1.6-9.15-1.51C53.05,30,7.39,42.17-3.53,79.6c-2.64,9.06.71,13.64,10.15,13.66q32.09.06,64.18,0c21.4,0,42.79,0,64.19,0C143.41,93.22,146.77,88.2,143.91,80.23Z" transform="translate(13.4 31)"/><path class="cls-1" d="M45.27,42.49A50.57,50.57,0,0,1,80.9,57.3c1.87,1.82,3.37,2.62,5.07,2.62a10.24,10.24,0,0,0,4.08-1.11,41.62,41.62,0,0,1,17.08-3.69c16.16,0,31.21,9.54,36.78,25.11,2.86,8-.5,13-8.92,13q-13.8,0-27.59,0H33.51l-26.89,0c-9.44,0-12.79-4.6-10.15-13.66a50.7,50.7,0,0,1,48.8-37.11m0-9h0C18.52,33.49-4.56,51-12.17,77.08c-2.16,7.4-1.48,13.51,2,18.16s9.11,7,16.77,7l26.91,0H107.4c10.78,0,19.56,0,27.62,0,9.47,0,14.07-4.58,16-7.29s4.65-8.67,1.4-17.76c-6.65-18.59-24.84-31.08-45.26-31.08a50.32,50.32,0,0,0-20.38,4.31A59.68,59.68,0,0,0,45.27,33.49Z" transform="translate(13.4 31)"/><circle class="cls-2" cx="58.28" cy="35.42" r="26.42"/><path class="cls-1" d="M44.88-22A26.42,26.42,0,1,1,18.47,4.42,26.42,26.42,0,0,1,44.88-22m0-9A35.45,35.45,0,0,0,9.47,4.42a35.42,35.42,0,0,0,70.83,0A35.46,35.46,0,0,0,44.88-31Z" transform="translate(13.4 31)"/><circle class="cls-2" cx="119.41" cy="56.14" r="20.2"/><path class="cls-1" d="M106,4.93A20.21,20.21,0,1,1,85.8,25.14,20.2,20.2,0,0,1,106,4.93m0-9a29.21,29.21,0,1,0,29.2,29.21A29.24,29.24,0,0,0,106-4.07Z" transform="translate(13.4 31)"/></svg>