<svg id="Слой_1" data-name="Слой 1" xmlns="http://www.w3.org/2000/svg" viewBox="0 0 157.13 162.18"><defs><style>.cls-1{fill:#4fa7ee;}.cls-2{fill:#fff;}</style></defs><title>boat</title><path class="cls-1" d="M160.08,78.59Q131.26,40.34,102.52,2c-1.39-1.84-3-2.89-5.27-2.12s-2.88,2.61-2.88,4.89q0,37.8,0,75.61c0,4.3,1.39,5.67,5.7,5.67q13.91,0,27.82,0,14.15,0,28.29,0c2,0,3.88-.27,4.86-2.26S161.32,80.24,160.08,78.59Z" transform="translate(-13.37 23)"/><path class="cls-2" d="M98.71-.34c1.55,0,2.74,1,3.81,2.38q28.74,38.31,57.56,76.55c1.24,1.65,1.93,3.34,1,5.26s-2.81,2.26-4.8,2.26H100.09c-4.31,0-5.69-1.37-5.7-5.67q0-37.81,0-75.61c0-2.28.55-4.11,2.88-4.89a4.46,4.46,0,0,1,1.46-.26m0-9a13.42,13.42,0,0,0-4.3.72c-2.72.91-9,4-9,13.44q0,23.66,0,47.31V80.42c0,9.31,5.36,14.66,14.68,14.67h56.19c7.68,0,11.24-4,12.87-7.28,1.36-2.75,2.91-8.31-1.86-14.65C147.8,47.35,128.44,21.59,109.71-3.36c-3.7-4.94-8-6-11-6Z" transform="translate(-13.37 23)"/><path class="cls-1" d="M147.8,98.71a9.46,9.46,0,0,0-3.49-.47c-18.62,0-37.25-.06-55.87,0-2,0-2.49-.56-2.48-2.51C86,78.39,86,61,86,43.68V2.78c0-4,.07-7.93,0-11.89-.1-3.63-1.89-5.2-5.48-4.84a27.78,27.78,0,0,0-5.81,1.13c-9,3-15,9.53-20.3,16.87-7.41,10.3-12.71,21.71-17,33.63-4.8,13.48-8.51,27.2-9.21,41.58-.27,5.55.88,6.68,6.49,6.68,13.55,0,27.11,0,40.66,0a2.5,2.5,0,0,1,1.9.48c.37.4.36.94.36,1.73,0,1.15.06,2.3,0,3.45s0,2,0,3.68c-.05,1.57-.09,2-.43,2.39a3.2,3.2,0,0,1-2.48.66c-15.61-.14-31.22-.07-46.84-.08-2.07,0-4,.26-5,2.37s-.14,4,1.28,5.63c6,7.08,12,14.15,17.88,21.3a6.72,6.72,0,0,0,5.73,2.63c25-.07,50.09-.12,75.13,0,3.92,0,6.66-1,9.14-4.12,5.39-6.84,11.18-13.37,16.76-20.07C151.21,103.05,150.8,99.93,147.8,98.71Z" transform="translate(-13.37 23)"/><path class="cls-2" d="M81.45-14c3,0,4.43,1.6,4.52,4.89.1,4,0,7.93,0,11.89v40.9C86,61,86,78.39,86,95.75c0,1.94.46,2.51,2.43,2.51h0q14.19-.06,28.38-.05,13.75,0,27.49,0a9.46,9.46,0,0,1,3.49.47c3,1.22,3.41,4.34.95,7.28-5.58,6.7-11.37,13.23-16.76,20.07-2.45,3.11-5.15,4.12-9,4.12h-.15q-18.25-.12-36.52-.1-19.31,0-38.61.06h0A6.74,6.74,0,0,1,42,127.51c-5.9-7.15-11.9-14.22-17.88-21.3-1.42-1.68-2.34-3.46-1.28-5.63s3-2.37,5-2.37H51.18q11.77,0,23.53.09h.11a3.07,3.07,0,0,0,2.37-.66c.34-.37.38-.82.43-2.39.06-1.73,0-2.38,0-3.68s0-2.3,0-3.45c0-.79,0-1.33-.36-1.73a2.47,2.47,0,0,0-1.84-.48h-.06Q64.62,86,53.89,86H34.7c-5.61,0-6.76-1.13-6.49-6.68.7-14.38,4.41-28.1,9.21-41.58,4.25-11.92,9.55-23.33,17-33.63,5.28-7.34,11.34-13.92,20.3-16.87a27.78,27.78,0,0,1,5.81-1.13c.34,0,.66-.05,1-.05m0-9h0a17.26,17.26,0,0,0-1.87.1,35.75,35.75,0,0,0-7.71,1.53C59.93-17.44,52.35-8.53,47.08-1.21,39.94,8.7,34,20.43,29,34.66c-6,16.81-9.08,30.84-9.73,44.17-.11,2.43-.35,7.33,2.83,11.28a12.48,12.48,0,0,0-7.32,6.55c-1.43,2.94-3,8.84,2.51,15.35l1.62,1.92c5.33,6.32,10.85,12.85,16.19,19.31a15.69,15.69,0,0,0,12.63,5.9h.07c12.3,0,25.5-.06,38.58-.06,13.41,0,25.34,0,36.47.1h.2c6.81,0,12.06-2.47,16.06-7.55,3.44-4.36,7.16-8.73,10.75-12.95,1.92-2.26,3.91-4.59,5.85-6.92A14.34,14.34,0,0,0,159,99.11a12.81,12.81,0,0,0-7.8-8.74,17.85,17.85,0,0,0-6.85-1.13q-13.76,0-27.51,0c-7.94,0-15.15,0-21.84,0,0-11.33,0-22.73,0-33.8V2.78c0-1.15,0-2.3,0-3.45,0-2.82,0-5.74,0-8.68C94.75-17.51,89.32-23,81.45-23Z" transform="translate(-13.37 23)"/></svg>