<svg id="Слой_1" data-name="Слой 1" xmlns="http://www.w3.org/2000/svg" viewBox="0 0 199.24 128.42"><defs><style>.cls-1{fill:#4fa7ee;}.cls-2{fill:#fff;}</style></defs><title>speed</title><path class="cls-1" d="M182.84,76.39A91.61,91.61,0,0,0,158.2,29.54c-1.35-1.37-2.25-1.72-3.77-.17q-10.52,10.71-21.21,21.25c-1.14,1.12-1.52,1.87-.22,3.23,6.52,6.85,10.48,15.09,12.91,24.15,1.09,4.08,2.63,5.22,6.91,5.29,3.89,0,7.78,0,11.67,0v0c4.34,0,8.69.15,13,0C181.4,83,183.61,80.16,182.84,76.39Z" transform="translate(7.25 7)"/><path class="cls-2" d="M156.22,28.35c.64,0,1.24.45,2,1.19a91.61,91.61,0,0,1,24.64,46.85c.77,3.77-1.44,6.64-5.34,6.81-1.7.08-3.4.1-5.11.1-2.63,0-5.26,0-7.9,0v0h-7.14c-1.51,0-3,0-4.53,0-4.28-.07-5.82-1.21-6.91-5.29-2.43-9.06-6.39-17.3-12.91-24.15-1.3-1.36-.92-2.11.22-3.23q10.67-10.56,21.21-21.25a2.65,2.65,0,0,1,1.79-1m0-9A11.31,11.31,0,0,0,148,23.06c-7.5,7.65-14.89,15-21.12,21.16-5.51,5.45-4.18,11.89-.41,15.84,5,5.21,8.47,11.84,10.73,20.27,2.13,7.93,7.19,11.84,15.48,12,1.39,0,2.87,0,4.66,0h7.14c.32,0,.63,0,.93,0l2.93,0c1.35,0,2.69,0,4,0,2.11,0,3.86,0,5.52-.11a14.31,14.31,0,0,0,13.75-17.6,101,101,0,0,0-27-51.34,11.73,11.73,0,0,0-8.41-3.9Z" transform="translate(7.25 7)"/><path class="cls-1" d="M148.48,21.41A90.32,90.32,0,0,0,98.26,2c-2.15-.16-2.64.69-2.59,2.65.1,4.78,0,9.56,0,14.34s.06,9.78,0,14.67c0,1.78.51,2.55,2.37,2.76A57.29,57.29,0,0,1,124,46.2a3.17,3.17,0,0,0,3-.27c7.25-7.06,14.35-14.26,21.53-21.38C149.72,23.38,150,22.58,148.48,21.41Z" transform="translate(7.25 7)"/><path class="cls-2" d="M97.79,2l.47,0a90.32,90.32,0,0,1,50.22,19.39c1.5,1.17,1.24,2,.05,3.14-7.18,7.12-14.28,14.32-21.53,21.38a2.92,2.92,0,0,1-1.84.53A2.21,2.21,0,0,1,124,46.2,57.29,57.29,0,0,0,98,36.44c-1.86-.21-2.4-1-2.37-2.76.09-4.89,0-9.78,0-14.67s.07-9.56,0-14.34C95.62,2.86,96,2,97.79,2m0-9a10.87,10.87,0,0,0-8,3.21,11.49,11.49,0,0,0-3.08,8.66c.07,3.29.06,6.69,0,10,0,1.39,0,2.77,0,4.16s0,2.78,0,4.17c0,3.4,0,6.92,0,10.33C86.55,40,90.61,44.65,97,45.38a48,48,0,0,1,21.92,8.26,11,11,0,0,0,6.23,1.82,11.65,11.65,0,0,0,8.12-3.08c4.67-4.55,9.34-9.22,13.86-13.73q3.86-3.87,7.73-7.71a11,11,0,0,0,3.63-8.6,10.83,10.83,0,0,0-4.47-8A99.72,99.72,0,0,0,98.92-7c-.39,0-.77,0-1.13,0Z" transform="translate(7.25 7)"/><path class="cls-1" d="M30.31,29.37c-1.52-1.55-2.42-1.2-3.76.17A91.61,91.61,0,0,0,1.91,76.39C1.14,80.16,3.34,83,7.24,83.2c4.33.2,8.67,0,13,0v0c3.89,0,7.79,0,11.68,0,4.28-.07,5.81-1.21,6.91-5.29,2.43-9.06,6.38-17.3,12.91-24.15,1.29-1.36.91-2.11-.22-3.23Q40.85,40.06,30.31,29.37Z" transform="translate(7.25 7)"/><path class="cls-2" d="M28.52,28.35a2.64,2.64,0,0,1,1.79,1Q40.83,40.08,51.53,50.62c1.13,1.12,1.51,1.87.22,3.23C45.22,60.7,41.27,68.94,38.84,78c-1.1,4.08-2.63,5.22-6.91,5.29-1.51,0-3,0-4.53,0H20.25v0c-2.63,0-5.26,0-7.9,0-1.7,0-3.41,0-5.11-.1-3.9-.17-6.1-3-5.33-6.81A91.61,91.61,0,0,1,26.55,29.54a3.06,3.06,0,0,1,2-1.19m0-9a11.68,11.68,0,0,0-8.4,3.9,100.81,100.81,0,0,0-27,51.34,14.6,14.6,0,0,0,2.64,12.1,14.64,14.64,0,0,0,11.11,5.5c1.65.08,3.4.11,5.51.11q2,0,4,0l2.93,0c.3,0,.61,0,.92,0H27.4c1.79,0,3.27,0,4.66,0,8.28-.11,13.34-4,15.47-12,2.26-8.43,5.77-15.06,10.73-20.27,3.77-4,5.11-10.39-.4-15.84C51.61,38,44.22,30.69,36.74,23.06a11.31,11.31,0,0,0-8.22-3.71Z" transform="translate(7.25 7)"/><path class="cls-1" d="M89.07,33.68C89,28.79,89,23.9,89,19s-.07-9.56,0-14.34c0-2-.44-2.81-2.6-2.65A90.29,90.29,0,0,0,36.27,21.41c-1.51,1.17-1.25,2-.06,3.14,7.18,7.12,14.29,14.32,21.53,21.38a3.17,3.17,0,0,0,3,.27,57.29,57.29,0,0,1,26-9.76C88.56,36.23,89.11,35.46,89.07,33.68Z" transform="translate(7.25 7)"/><path class="cls-2" d="M87,2c1.75,0,2.16.86,2.12,2.67C89,9.45,89,14.23,89,19s-.06,9.78,0,14.67c0,1.78-.51,2.55-2.37,2.76A57.29,57.29,0,0,0,60.75,46.2a2.18,2.18,0,0,1-1.17.26,2.92,2.92,0,0,1-1.84-.53C50.5,38.87,43.39,31.67,36.21,24.55c-1.19-1.17-1.45-2,.06-3.14A90.29,90.29,0,0,1,86.48,2L87,2m0-9c-.37,0-.75,0-1.13,0A99.67,99.67,0,0,0,30.72,14.32a10.8,10.8,0,0,0-4.47,8,10.93,10.93,0,0,0,3.62,8.6q3.89,3.84,7.73,7.71c4.52,4.51,9.19,9.18,13.86,13.73a11.67,11.67,0,0,0,8.12,3.08,11,11,0,0,0,6.23-1.82,48.12,48.12,0,0,1,21.92-8.26c6.41-.73,10.46-5.4,10.34-11.87-.06-3.4,0-6.91,0-10.3,0-1.4,0-2.8,0-4.2s0-2.78,0-4.17c0-3.29,0-6.69,0-10A11.5,11.5,0,0,0,95-3.79,10.84,10.84,0,0,0,87-7Z" transform="translate(7.25 7)"/><path class="cls-1" d="M124,61.71a6.57,6.57,0,0,0-1.89,1c-8.23,4.87-16.44,9.79-24.72,14.59a11.06,11.06,0,0,1-3.73,1.31A16.92,16.92,0,1,0,110.75,96.8c.06-.57.11-1.16.13-1.75a8.11,8.11,0,0,1,.85-3.36c4.52-8.61,9.13-17.17,13.7-25.75a6.44,6.44,0,0,0,.92-1.93,2.51,2.51,0,0,0-.43-1.91A2.54,2.54,0,0,0,124,61.71Z" transform="translate(7.25 7)"/><path class="cls-2" d="M124.48,61.67a2.19,2.19,0,0,1,1.44.43,2.51,2.51,0,0,1,.43,1.91,6.44,6.44,0,0,1-.92,1.93c-4.57,8.58-9.18,17.14-13.7,25.75a8.11,8.11,0,0,0-.85,3.36c0,.59-.07,1.18-.13,1.75A16.91,16.91,0,1,1,93.64,78.59a11.06,11.06,0,0,0,3.73-1.31c8.28-4.8,16.49-9.72,24.72-14.59a6.57,6.57,0,0,1,1.89-1,2.67,2.67,0,0,1,.5,0m0-9a12.73,12.73,0,0,0-2.06.17,12.51,12.51,0,0,0-4.77,2l-.17.11-6.67,4c-5.88,3.49-12,7.1-18,10.58a1.39,1.39,0,0,1-.3.12A25.92,25.92,0,1,0,119.7,97.69c.09-.72.14-1.43.17-2.14,3.3-6.28,6.7-12.64,10-18.8l3.51-6.57.08-.14a12.58,12.58,0,0,0,1.8-4.69,11.2,11.2,0,0,0-3.07-9.72,11,11,0,0,0-7.7-3Z" transform="translate(7.25 7)"/></svg>