<svg id="Слой_1" data-name="Слой 1" xmlns="http://www.w3.org/2000/svg" viewBox="0 0 153.87 154.25"><defs><style>.cls-1{fill:#4fa7ee;}.cls-2{fill:#fff;}</style></defs><title>width</title><path class="cls-1" d="M89.82,23.31a7.07,7.07,0,0,1,4.54,2.17q15.09,15.1,30.12,30.26c3.26,3.31,3.15,7.21,0,10.59-.61.66-1.26,1.28-1.9,1.92l-86.9,87.24c-.53.53-1,1.08-1.59,1.59-3.55,3.25-7.37,3.36-10.77,0-10-10-20.08-20-29.95-30.11-4.44-4.57-2-8.94,1.8-12.12.23-.2,1.21.13,1.57.48,3.38,3.3,6.7,6.65,10,10,.47.47.94,1,1.45,1.39a3.54,3.54,0,0,0,4.94-5.06c-1.77-1.93-3.67-3.74-5.52-5.59s-3.89-4-5.89-5.87c-.75-.72-.88-1.21-.06-2,2.22-2.12,4.39-4.3,6.51-6.51.76-.79,1.24-.78,2,0,1.32,1.43,2.74,2.77,4.15,4.11,2.05,2,3.89,2.11,5.53.55s1.38-3.73-.55-5.73q-2-2.1-4.14-4.13c-.62-.6-.91-1-.12-1.8q3.41-3.27,6.67-6.67c.84-.88,1.31-.55,2,.15,1.29,1.36,2.62,2.67,4,4,2.07,2,4.13,2.25,5.71.7s1.34-3.76-.58-5.74c-1.31-1.34-2.62-2.68-4-4-.79-.74-1-1.25-.09-2.13,2.19-2,4.3-4.18,6.36-6.35.82-.86,1.32-.81,2.13,0,3.3,3.38,6.66,6.7,10,10a19.22,19.22,0,0,0,1.46,1.4,3.56,3.56,0,0,0,4.89,0,3.66,3.66,0,0,0,.16-5.08c-1.69-1.9-3.55-3.65-5.35-5.46-2.06-2.07-4.09-4.17-6.21-6.17-.81-.76-.77-1.2,0-1.94q3.33-3.18,6.52-6.51c.76-.8,1.23-.76,2,0,1.43,1.54,2.92,3,4.45,4.45,1.75,1.64,3.75,1.73,5.22.34s1.43-3.67-.2-5.4c-1.5-1.58-3-3.11-4.61-4.61-.61-.58-.68-1,0-1.6,2.31-2.24,4.6-4.51,6.83-6.83.76-.79,1.2-.48,1.8.13,1.48,1.49,3,3,4.51,4.4,1.83,1.69,3.64,1.77,5.18.33s1.46-3.63-.2-5.4c-1.43-1.53-2.91-3-4.45-4.44-.83-.76-.75-1.24,0-2,2.16-2.07,4.3-4.18,6.35-6.36.9-1,1.42-.87,2.3,0,3.5,3.6,7.07,7.12,10.62,10.66,1,1,2.13,1.94,3.71,1.64,2.93-.54,4-3.71,1.9-6-1.74-2-3.67-3.74-5.52-5.6s-3.95-3.9-5.86-5.9a1.63,1.63,0,0,1-.4-1.4A9.31,9.31,0,0,1,89.82,23.31Z" transform="translate(18.03 -14.31)"/><path class="cls-2" d="M89.77,23.31h0a7.07,7.07,0,0,1,4.54,2.17q15.09,15.1,30.12,30.26c3.26,3.31,3.15,7.21,0,10.59-.61.66-1.26,1.28-1.9,1.92l-86.9,87.24c-.53.53-1,1.08-1.59,1.59a8.22,8.22,0,0,1-5.48,2.48,7.55,7.55,0,0,1-5.29-2.49c-10-10-20.08-20-29.95-30.11-4.44-4.57-2-8.94,1.8-12.12a.37.37,0,0,1,.23-.06,2.4,2.4,0,0,1,1.34.54c3.38,3.3,6.7,6.65,10,10,.47.47.94,1,1.45,1.39a4,4,0,0,0,2.54,1,3.29,3.29,0,0,0,2.35-1,3.58,3.58,0,0,0,.05-5.06c-1.77-1.93-3.67-3.74-5.52-5.59s-3.89-4-5.89-5.87c-.75-.72-.88-1.21-.06-2,2.22-2.12,4.39-4.3,6.51-6.51a1.5,1.5,0,0,1,1-.59,1.46,1.46,0,0,1,1,.6c1.32,1.43,2.74,2.77,4.15,4.11a4.83,4.83,0,0,0,3.2,1.6,3.36,3.36,0,0,0,2.33-1.05c1.58-1.5,1.38-3.73-.55-5.73q-2-2.1-4.14-4.13c-.62-.6-.91-1-.12-1.8q3.41-3.27,6.67-6.67a1.33,1.33,0,0,1,.92-.53c.36,0,.67.28,1.05.68,1.29,1.36,2.62,2.67,4,4a5.1,5.1,0,0,0,3.42,1.71,3.24,3.24,0,0,0,2.29-1c1.55-1.54,1.34-3.76-.58-5.74-1.31-1.34-2.62-2.68-4-4-.79-.74-1-1.25-.09-2.13,2.19-2,4.3-4.18,6.36-6.35a1.56,1.56,0,0,1,1-.62,1.63,1.63,0,0,1,1.08.64c3.3,3.38,6.66,6.7,10,10a19.22,19.22,0,0,0,1.46,1.4,4.07,4.07,0,0,0,2.55,1,3.35,3.35,0,0,0,2.34-1,3.66,3.66,0,0,0,.16-5.08c-1.69-1.9-3.55-3.65-5.35-5.46-2.06-2.07-4.09-4.17-6.21-6.17-.81-.76-.77-1.2,0-1.94q3.33-3.18,6.52-6.51a1.44,1.44,0,0,1,1-.58,1.48,1.48,0,0,1,1,.61c1.43,1.54,2.92,3,4.45,4.45A4.31,4.31,0,0,0,58,66.78a3.3,3.3,0,0,0,2.31-1c1.48-1.41,1.43-3.67-.2-5.4-1.5-1.58-3-3.11-4.61-4.61-.61-.58-.68-1,0-1.6,2.31-2.24,4.6-4.51,6.83-6.83a1.19,1.19,0,0,1,.83-.47,1.52,1.52,0,0,1,1,.6c1.48,1.49,3,3,4.51,4.4a4.32,4.32,0,0,0,2.87,1.34,3.35,3.35,0,0,0,2.31-1c1.5-1.41,1.46-3.63-.2-5.4-1.43-1.53-2.91-3-4.45-4.44-.83-.76-.75-1.24,0-2,2.16-2.07,4.3-4.18,6.35-6.36.44-.46.78-.68,1.13-.68s.72.25,1.17.71c3.5,3.6,7.07,7.12,10.62,10.66a4.53,4.53,0,0,0,3.12,1.7,3.11,3.11,0,0,0,.59-.06c2.93-.54,4-3.71,1.9-6-1.74-2-3.67-3.74-5.52-5.6s-3.95-3.9-5.86-5.9a1.63,1.63,0,0,1-.4-1.4,9.31,9.31,0,0,1,7.54-4.14m0-9h0a18.24,18.24,0,0,0-15.29,8.57,9.25,9.25,0,0,0-.87,2,11,11,0,0,0-4.68,3c-2.11,2.24-4.33,4.4-6,6A10.83,10.83,0,0,0,60,38.41a10.48,10.48,0,0,0-4.21,2.71c-2,2.06-4.15,4.23-6.61,6.62a10.3,10.3,0,0,0-2.7,4.19,10.72,10.72,0,0,0-4.34,2.84C40.08,56.93,38,59,35.93,61A10.86,10.86,0,0,0,33,65.55a10.93,10.93,0,0,0-4.45,2.92c-2.25,2.37-4.15,4.26-6,6a10.78,10.78,0,0,0-3,4.53A10.68,10.68,0,0,0,15.2,81.8c-2,2.1-4.08,4.19-6.39,6.4A10.4,10.4,0,0,0,6,92.62,10.8,10.8,0,0,0,1.7,95.45c-2.1,2.18-4.2,4.28-6.24,6.24a10.69,10.69,0,0,0-2.89,4.51A9.34,9.34,0,0,0-10.66,108c-5.78,4.88-7.19,9.88-7.35,13.21a15.85,15.85,0,0,0,4.91,12.06c9.68,10,19.34,19.58,30.06,30.22a16.28,16.28,0,0,0,11.63,5.11,16.92,16.92,0,0,0,11.56-4.85c.57-.53,1.06-1,1.49-1.46l.4-.41,72.42-72.71L128.94,74.6l.55-.54c.47-.47,1-1,1.55-1.58,6.46-6.92,6.4-16.4-.15-23.05-8.5-8.62-17.18-17.32-25.58-25.73l-4.58-4.58a16.06,16.06,0,0,0-10.58-4.8h-.38Z" transform="translate(18.03 -14.31)"/></svg>